<?xml version="1.0" encoding="UTF-8" standalone="no"?>
<!DOCTYPE svg PUBLIC "-//W3C//DTD SVG 1.1//EN" "http://www.w3.org/Graphics/SVG/1.1/DTD/svg11.dtd">
<svg xmlns="http://www.w3.org/2000/svg" version="1.1" viewBox="0.00 0.00 1080.00 730.00">
<g stroke-width="2.00" fill="none" stroke-linecap="butt">
<path stroke="#ead381" vector-effect="non-scaling-stroke" d="
  M 190.22 138.67
  L 175.04 138.49"
/>
<path stroke="#ead381" vector-effect="non-scaling-stroke" d="
  M 194.51 138.89
  Q 196.38 139.70 199.00 139.32"
/>
<path stroke="#ead381" vector-effect="non-scaling-stroke" d="
  M 245.00 233.60
  Q 242.34 234.74 240.79 237.03"
/>
<path stroke="#e08a21" vector-effect="non-scaling-stroke" d="
  M 238.25 239.21
  L 236.50 239.34
  Q 235.99 239.38 235.65 238.98
  Q 223.51 224.45 207.74 214.02
  C 193.15 204.36 171.22 200.82 157.08 213.31"
/>
<path stroke="#d36922" vector-effect="non-scaling-stroke" d="
  M 157.08 213.31
  Q 146.94 221.78 149.82 236.06"
/>
<path stroke="#e08a21" vector-effect="non-scaling-stroke" d="
  M 244.22 507.56
  Q 243.56 507.48 242.87 507.87
  C 217.75 522.01 186.88 525.64 158.51 521.06
  Q 118.02 514.53 90.98 484.02
  Q 74.05 464.93 63.43 442.93"
/>
<path stroke="#ead381" vector-effect="non-scaling-stroke" d="
  M 121.59 408.20
  L 123.23 409.69"
/>
<path stroke="#ead381" vector-effect="non-scaling-stroke" d="
  M 156.53 448.31
  Q 157.20 449.68 159.59 450.03"
/>
<path stroke="#d36922" vector-effect="non-scaling-stroke" d="
  M 184.90 455.74
  Q 197.59 455.98 207.69 449.12"
/>
<path stroke="#e08a21" vector-effect="non-scaling-stroke" d="
  M 207.69 449.12
  Q 219.29 442.77 223.20 431.28
  C 230.38 410.17 214.03 391.70 199.59 379.65
  Q 172.91 357.38 146.79 334.47
  C 118.94 310.05 87.46 280.94 81.76 243.45
  C 77.40 214.80 87.81 186.63 108.64 166.49
  C 110.62 164.58 113.53 162.52 115.82 160.20"
/>
<path stroke="#ead381" vector-effect="non-scaling-stroke" d="
  M 143.84 144.73
  L 149.50 142.72"
/>
<path stroke="#d44237" vector-effect="non-scaling-stroke" d="
  M 237.40 239.96
  Q 232.64 241.29 229.44 245.36
  A 1.30 1.30 0.0 0 1 227.42 245.38
  Q 215.43 230.97 200.03 220.50
  Q 180.51 207.23 157.08 213.31"
/>
<path stroke="#d44237" vector-effect="non-scaling-stroke" d="
  M 207.69 449.12
  Q 217.86 437.09 216.07 422.78
  C 213.72 403.98 196.60 390.18 183.06 378.93
  Q 151.43 352.66 121.03 324.99
  Q 98.67 304.64 84.90 281.85
  Q 66.09 250.72 75.11 213.05"
/>
<path stroke="#d44237" vector-effect="non-scaling-stroke" d="
  M 136.25 524.83
  Q 136.64 524.21 136.00 524.03
  C 98.58 513.47 72.32 484.16 55.39 450.12
  A 1.40 1.39 66.6 0 1 56.15 448.19
  Q 59.69 446.86 61.90 444.04"
/>
</g>
<path fill="#f4f5f7" d="
  M 190.22 138.67
  L 175.04 138.49
  Q 182.58 137.60 190.22 138.67
  Z"
/>
<path fill="#dfb10b" d="
  M 175.04 138.49
  L 190.22 138.67
  L 194.51 138.89
  Q 196.38 139.70 199.00 139.32
  C 224.83 143.07 246.99 156.68 265.58 174.57
  C 266.15 175.12 267.11 175.67 267.98 176.52
  Q 279.43 187.75 286.94 196.69
  Q 287.29 197.12 286.87 197.48
  L 245.00 233.60
  Q 242.34 234.74 240.79 237.03
  L 238.25 239.21
  L 236.50 239.34
  Q 235.99 239.38 235.65 238.98
  Q 223.51 224.45 207.74 214.02
  C 193.15 204.36 171.22 200.82 157.08 213.31
  Q 146.94 221.78 149.82 236.06
  C 151.98 244.73 158.42 252.19 164.68 258.33
  Q 172.27 265.78 190.09 280.17
  C 213.94 299.43 239.00 318.49 260.29 340.61
  Q 277.05 358.02 285.70 378.49
  C 292.16 393.78 293.77 408.96 293.20 425.42
  Q 292.93 433.41 291.49 440.46
  Q 282.64 483.86 244.22 507.56
  Q 243.56 507.48 242.87 507.87
  C 217.75 522.01 186.88 525.64 158.51 521.06
  Q 118.02 514.53 90.98 484.02
  Q 74.05 464.93 63.43 442.93
  L 121.59 408.20
  L 123.23 409.69
  C 130.75 424.45 142.03 439.77 156.53 448.31
  Q 157.20 449.68 159.59 450.03
  Q 171.09 455.83 184.90 455.74
  Q 197.59 455.98 207.69 449.12
  Q 219.29 442.77 223.20 431.28
  C 230.38 410.17 214.03 391.70 199.59 379.65
  Q 172.91 357.38 146.79 334.47
  C 118.94 310.05 87.46 280.94 81.76 243.45
  C 77.40 214.80 87.81 186.63 108.64 166.49
  C 110.62 164.58 113.53 162.52 115.82 160.20
  Q 128.42 150.51 143.84 144.73
  L 149.50 142.72
  Q 161.91 139.16 175.04 138.49
  Z"
/>
<path fill="#f4f5f7" d="
  M 194.51 138.89
  L 199.00 139.32
  Q 196.38 139.70 194.51 138.89
  Z"
/>
<path fill="#f4f5f7" d="
  M 149.50 142.72
  L 143.84 144.73
  L 149.50 142.72
  Z"
/>
<path fill="#e06236" d="
  M 115.82 160.20
  C 113.53 162.52 110.62 164.58 108.64 166.49
  C 87.81 186.63 77.40 214.80 81.76 243.45
  C 87.46 280.94 118.94 310.05 146.79 334.47
  Q 172.91 357.38 199.59 379.65
  C 214.03 391.70 230.38 410.17 223.20 431.28
  Q 219.29 442.77 207.69 449.12
  Q 217.86 437.09 216.07 422.78
  C 213.72 403.98 196.60 390.18 183.06 378.93
  Q 151.43 352.66 121.03 324.99
  Q 98.67 304.64 84.90 281.85
  Q 66.09 250.72 75.11 213.05
  Q 85.16 179.68 115.82 160.20
  Z"
/>
<path fill="#e06236" d="
  M 238.25 239.21
  Q 237.77 239.82 237.40 239.96
  Q 232.64 241.29 229.44 245.36
  A 1.30 1.30 0.0 0 1 227.42 245.38
  Q 215.43 230.97 200.03 220.50
  Q 180.51 207.23 157.08 213.31
  C 171.22 200.82 193.15 204.36 207.74 214.02
  Q 223.51 224.45 235.65 238.98
  Q 235.99 239.38 236.50 239.34
  L 238.25 239.21
  Z"
/>
<path fill="#c72138" d="
  M 237.40 239.96
  L 209.20 263.90
  Q 208.80 264.25 208.42 263.87
  C 192.42 247.97 177.36 230.80 152.23 232.03
  Q 149.48 232.16 149.82 236.06
  Q 146.94 221.78 157.08 213.31
  Q 180.51 207.23 200.03 220.50
  Q 215.43 230.97 227.42 245.38
  A 1.30 1.30 0.0 0 0 229.44 245.36
  Q 232.64 241.29 237.40 239.96
  Z"
/>
<path fill="#c72138" d="
  M 75.11 213.05
  Q 66.09 250.72 84.90 281.85
  Q 98.67 304.64 121.03 324.99
  Q 151.43 352.66 183.06 378.93
  C 196.60 390.18 213.72 403.98 216.07 422.78
  Q 217.86 437.09 207.69 449.12
  Q 197.59 455.98 184.90 455.74
  C 195.13 449.09 198.57 438.57 197.03 426.84
  C 194.92 410.76 178.50 397.26 167.76 388.23
  Q 157.23 379.37 126.38 352.62
  C 107.56 336.31 90.53 320.27 77.63 300.07
  Q 71.61 290.64 68.59 282.29
  Q 58.40 254.14 69.96 225.06
  Q 72.25 219.28 75.11 213.05
  Z"
/>
<path fill="#f4f5f7" d="
  M 245.00 233.60
  L 240.79 237.03
  Q 242.34 234.74 245.00 233.60
  Z"
/>
<rect fill="#f4f5f7" x="583.10" y="291.12" width="38.86" height="213.78" rx="0.27"/>
<rect fill="#f4f5f7" x="652.11" y="291.12" width="38.90" height="213.80" rx="1.10"/>
<path fill="#f4f5f7" d="
  M 360.32 351.00
  L 382.32 351.00
  Q 382.88 351.00 382.88 351.57
  L 382.88 382.75
  A 2.13 2.13 0.0 0 1 380.75 384.88
  L 360.51 384.87
  Q 359.89 384.87 359.89 385.49
  L 359.91 504.49
  Q 359.91 504.90 359.51 504.90
  L 321.44 504.87
  Q 321.00 504.87 321.00 504.44
  L 321.00 385.44
  Q 321.00 384.88 320.44 384.88
  L 301.47 384.88
  Q 301.06 384.88 301.06 384.47
  L 301.07 351.47
  Q 301.07 351.00 301.53 351.00
  L 320.50 351.00
  Q 321.00 351.00 321.00 350.50
  L 321.00 294.54
  Q 321.00 294.08 321.46 294.08
  L 359.51 294.09
  A 0.42 0.42 0.0 0 1 359.93 294.51
  L 359.89 350.57
  Q 359.89 351.00 360.32 351.00
  Z"
/>
<path fill="#f4f5f7" d="
  M 416.40 371.96
  C 419.04 369.35 422.51 365.53 426.51 362.52
  Q 441.70 351.08 458.00 348.12
  Q 468.24 346.25 483.49 347.23
  Q 502.87 348.47 518.93 358.20
  C 541.34 371.78 554.47 395.83 556.20 421.93
  Q 556.21 422.13 556.78 428.56
  Q 557.14 432.68 556.78 437.09
  A 2.00 1.98 2.2 0 1 554.79 438.92
  L 433.50 438.92
  Q 433.05 438.92 433.13 439.36
  Q 438.13 466.19 463.49 472.67
  Q 472.73 475.03 483.00 473.87
  Q 492.71 472.77 501.46 468.45
  Q 510.34 464.07 517.69 457.10
  A 0.76 0.75 -46.5 0 1 518.69 457.07
  L 545.47 479.66
  A 0.91 0.91 0.0 0 1 545.54 480.97
  Q 534.83 492.25 520.63 499.21
  Q 520.54 499.25 519.33 499.71
  C 518.39 500.07 518.03 500.57 517.35 500.85
  Q 491.04 511.47 462.75 507.83
  Q 432.43 503.93 413.91 481.56
  Q 397.94 462.26 395.48 437.46
  Q 394.73 429.80 395.11 420.99
  Q 395.17 419.79 395.77 417.04
  Q 396.17 415.24 396.12 413.34
  Q 396.11 412.79 396.26 412.27
  L 400.28 398.29
  Q 400.45 397.73 400.68 397.18
  Q 402.72 392.46 404.58 388.57
  Q 409.09 379.18 416.40 371.96
  Z
  M 517.19 407.44
  C 513.04 394.71 502.55 385.63 489.98 382.04
  Q 480.78 379.41 470.14 380.38
  Q 448.96 382.32 437.74 401.84
  Q 437.30 402.61 436.47 404.83
  Q 435.91 406.34 434.94 407.57
  Q 434.53 408.10 435.20 408.10
  L 516.72 408.09
  A 0.50 0.49 81.0 0 0 517.19 407.44
  Z"
/>
<path fill="#f4f5f7" d="
  M 837.45 488.96
  L 832.06 494.27
  Q 831.76 494.57 831.37 494.75
  C 829.48 495.60 828.21 497.20 826.63 498.14
  Q 819.02 502.66 816.52 503.74
  Q 799.86 510.90 780.49 507.84
  Q 773.16 506.68 767.21 504.45
  C 754.04 499.52 741.97 490.44 733.70 479.05
  Q 720.99 461.56 718.29 439.75
  Q 717.51 433.41 718.14 416.45
  Q 718.18 415.41 718.83 413.17
  C 719.24 411.76 719.13 410.01 719.39 408.66
  Q 723.96 385.08 739.61 368.38
  Q 755.74 351.16 780.09 347.28
  Q 783.59 346.73 793.04 346.94
  Q 800.46 347.10 805.80 348.49
  Q 824.05 353.24 837.50 366.95
  Q 838.05 367.50 838.05 366.72
  L 838.06 351.47
  Q 838.06 351.00 838.53 351.00
  L 876.46 351.00
  Q 876.92 351.00 876.92 351.46
  L 876.91 504.37
  Q 876.91 504.90 876.38 504.90
  L 838.73 504.88
  Q 838.07 504.88 838.07 504.23
  L 838.07 489.22
  A 0.36 0.36 0.0 0 0 837.45 488.96
  Z
  M 785.87 384.24
  C 753.87 393.91 748.25 438.10 768.92 460.55
  Q 779.25 471.77 795.63 472.86
  Q 812.86 474.01 825.09 463.13
  C 840.13 449.74 843.58 424.63 835.69 406.76
  Q 828.44 390.32 810.91 384.40
  C 805.07 382.43 798.59 382.67 792.34 382.88
  Q 791.57 382.91 790.51 383.35
  C 788.95 384.00 787.08 383.87 785.87 384.24
  Z"
/>
<path fill="#f4f5f7" d="
  M 1029.62 357.63
  Q 1035.70 361.27 1040.34 364.91
  C 1056.71 377.75 1066.30 398.67 1068.27 419.26
  C 1068.34 420.02 1068.87 420.57 1068.87 421.46
  Q 1068.90 429.98 1068.88 438.53
  Q 1068.87 438.91 1068.49 438.91
  L 945.47 438.92
  A 0.48 0.47 -20.8 0 0 945.11 439.71
  L 945.42 440.05
  Q 945.74 440.40 945.78 440.87
  Q 945.92 442.58 946.79 445.29
  Q 950.90 458.05 960.53 465.45
  C 970.56 473.15 984.67 475.30 997.30 473.63
  Q 1006.10 472.47 1014.63 467.98
  Q 1022.82 463.67 1029.89 457.44
  Q 1030.29 457.08 1030.77 457.33
  Q 1031.91 457.94 1033.36 459.14
  Q 1044.79 468.59 1056.90 478.90
  Q 1058.38 480.15 1057.04 481.55
  Q 1038.70 500.79 1011.50 506.35
  Q 993.25 510.09 976.11 507.73
  Q 932.97 501.80 914.72 463.39
  Q 913.73 461.31 912.56 457.45
  C 911.73 454.73 910.52 452.03 909.90 449.44
  Q 905.00 428.68 909.16 410.03
  Q 919.05 365.67 961.81 350.31
  C 965.64 348.93 970.20 348.41 974.46 347.60
  Q 977.13 347.10 979.59 347.06
  Q 990.64 346.91 998.75 347.14
  C 999.54 347.16 1000.35 347.73 1001.12 347.81
  Q 1015.80 349.33 1029.62 357.63
  Z
  M 954.35 395.16
  C 951.16 398.85 949.20 403.41 947.03 407.75
  Q 946.84 408.13 947.26 408.13
  L 1027.69 408.09
  Q 1028.15 408.09 1028.59 408.25
  L 1029.17 408.47
  Q 1029.76 408.70 1029.59 408.09
  Q 1026.69 397.62 1017.09 389.66
  Q 1009.91 383.71 999.78 381.51
  Q 986.81 378.68 975.03 381.63
  C 966.46 383.77 959.99 388.66 954.35 395.16
  Z"
/>
<path fill="#f4f5f7" d="
  M 123.23 409.69
  L 121.59 408.20
  Q 122.47 407.55 123.23 409.69
  Z"
/>
<path fill="#e06236" d="
  M 63.43 442.93
  Q 74.05 464.93 90.98 484.02
  Q 118.02 514.53 158.51 521.06
  C 186.88 525.64 217.75 522.01 242.87 507.87
  Q 243.56 507.48 244.22 507.56
  C 212.99 530.13 173.11 533.58 136.25 524.83
  Q 136.64 524.21 136.00 524.03
  C 98.58 513.47 72.32 484.16 55.39 450.12
  A 1.40 1.39 66.6 0 1 56.15 448.19
  Q 59.69 446.86 61.90 444.04
  L 63.43 442.93
  Z"
/>
<path fill="#c72138" d="
  M 61.90 444.04
  Q 59.69 446.86 56.15 448.19
  A 1.40 1.39 66.6 0 0 55.39 450.12
  C 72.32 484.16 98.58 513.47 136.00 524.03
  Q 136.64 524.21 136.25 524.83
  Q 106.89 520.24 84.62 501.50
  C 69.44 488.73 56.98 471.02 48.19 453.31
  Q 47.75 452.43 48.60 451.93
  L 61.90 444.04
  Z"
/>
<path fill="#f4f5f7" d="
  M 156.53 448.31
  L 159.59 450.03
  Q 157.20 449.68 156.53 448.31
  Z"
/>
<path fill="#e37910" d="
  M 422.84 546.43
  C 418.86 548.06 418.14 548.01 416.30 552.13
  A 0.39 0.39 0.0 0 1 415.57 552.10
  Q 414.22 548.09 410.29 546.58
  A 0.82 0.82 0.0 0 1 410.28 545.05
  Q 414.47 543.39 415.58 539.06
  A 0.43 0.42 38.3 0 1 416.37 538.97
  L 418.52 543.05
  A 0.88 0.86 -89.2 0 0 418.87 543.42
  L 422.88 545.65
  A 0.44 0.43 48.2 0 1 422.84 546.43
  Z"
/>
<path fill="#e37910" d="
  M 752.43 538.96
  C 753.53 543.42 754.96 543.18 758.57 545.39
  A 0.50 0.50 0.0 0 1 758.45 546.29
  Q 753.93 547.61 752.41 552.05
  A 0.44 0.43 44.2 0 1 751.59 552.06
  Q 749.93 547.63 745.38 546.20
  A 0.48 0.48 0.0 0 1 745.38 545.29
  Q 750.10 543.76 751.54 538.94
  A 0.46 0.46 0.0 0 1 752.43 538.96
  Z"
/>
<path fill="#e37910" d="
  M 286.38 547.29
  C 284.01 548.36 283.05 550.32 281.99 552.60
  A 0.43 0.43 0.0 0 1 281.19 552.54
  Q 279.91 548.01 275.35 546.69
  A 0.73 0.73 0.0 0 1 275.36 545.28
  Q 279.94 544.01 281.16 539.42
  A 0.47 0.47 0.0 0 1 282.04 539.32
  L 284.12 543.28
  Q 284.28 543.59 284.59 543.76
  L 287.87 545.58
  Q 288.52 545.94 287.93 546.38
  Q 287.18 546.93 286.38 547.29
  Z"
/>
<path fill="#e37910" d="
  M 346.87 542.16
  C 347.50 541.38 347.75 540.38 348.33 539.40
  Q 348.75 538.68 349.14 539.42
  L 351.20 543.34
  Q 351.48 543.86 352.02 544.08
  L 355.64 545.55
  A 0.30 0.30 0.0 0 1 355.66 546.09
  L 351.59 548.20
  A 0.58 0.54 -86.7 0 0 351.38 548.40
  L 349.47 551.79
  A 0.82 0.81 49.1 0 1 348.00 551.68
  Q 346.35 547.47 342.00 546.37
  A 0.40 0.39 41.5 0 1 341.95 545.62
  Q 345.00 544.47 346.87 542.16
  Z"
/>
<path fill="#e37910" d="
  M 489.57 545.33
  A 0.68 0.68 0.0 0 1 489.60 546.62
  Q 485.46 548.16 483.43 552.12
  A 0.51 0.51 0.0 0 1 482.48 552.03
  Q 481.25 547.85 477.14 546.54
  A 0.53 0.53 0.0 0 1 477.05 545.57
  L 480.15 543.94
  A 1.59 1.56 -89.0 0 0 480.80 543.30
  L 482.99 539.32
  A 0.43 0.43 0.0 0 1 483.79 539.41
  Q 485.06 543.92 489.57 545.33
  Z"
/>
<path fill="#e37910" d="
  M 620.70 548.01
  L 617.89 552.64
  A 0.38 0.38 0.0 0 1 617.20 552.55
  Q 615.91 548.02 611.35 546.69
  A 0.73 0.73 0.0 0 1 611.36 545.28
  Q 615.94 544.01 617.16 539.42
  A 0.47 0.47 0.0 0 1 618.03 539.32
  L 620.06 543.17
  Q 620.28 543.59 620.70 543.82
  L 623.89 545.59
  Q 624.59 545.98 623.92 546.42
  Q 622.55 547.30 621.01 547.77
  A 0.55 0.54 -82.3 0 0 620.70 548.01
  Z"
/>
<path fill="#e37910" d="
  M 682.87 542.19
  C 683.48 541.42 683.73 540.39 684.31 539.41
  Q 684.75 538.68 685.14 539.43
  L 687.12 543.20
  A 1.60 1.54 2.1 0 0 687.73 543.83
  L 691.01 545.70
  A 0.42 0.42 0.0 0 1 690.94 546.47
  Q 686.84 547.87 685.46 551.98
  A 0.56 0.56 0.0 0 1 684.47 552.11
  L 682.20 548.75
  A 0.53 0.45 3.1 0 0 682.04 548.60
  L 677.99 546.28
  A 0.43 0.43 0.0 0 1 678.06 545.51
  Q 681.06 544.47 682.87 542.19
  Z"
/>
<path fill="#e37910" d="
  M 825.57 545.32
  A 0.69 0.68 43.4 0 1 825.61 546.62
  Q 821.45 548.15 819.43 552.12
  A 0.52 0.52 0.0 0 1 818.47 552.03
  Q 817.25 547.84 813.14 546.54
  A 0.53 0.53 0.0 0 1 813.05 545.57
  L 816.13 543.96
  Q 816.56 543.73 816.80 543.31
  L 818.99 539.32
  A 0.44 0.44 0.0 0 1 819.80 539.41
  Q 821.05 543.94 825.57 545.32
  Z"
/>
<path fill="#e37910" d="
  M 959.60 545.39
  Q 960.78 545.94 959.64 546.57
  L 955.71 548.73
  A 0.55 0.50 87.7 0 0 955.48 549.00
  L 954.05 552.57
  Q 953.76 553.30 953.38 552.60
  L 951.33 548.79
  A 0.73 0.68 1.2 0 0 951.04 548.51
  L 947.00 546.39
  A 0.45 0.45 0.0 0 1 947.00 545.59
  L 951.07 543.48
  A 0.97 0.95 -5.3 0 0 951.52 542.95
  L 952.58 539.83
  A 0.86 0.85 35.7 0 1 954.07 539.59
  C 955.19 541.06 955.43 542.85 956.94 543.90
  Q 958.00 544.64 959.60 545.39
  Z"
/>
<path fill="#e37910" d="
  M 1018.86 542.16
  C 1019.52 541.37 1019.72 540.40 1020.31 539.41
  Q 1020.75 538.68 1021.15 539.44
  L 1023.17 543.29
  A 1.33 1.30 1.2 0 0 1023.69 543.82
  L 1026.89 545.61
  A 0.46 0.46 0.0 0 1 1026.89 546.41
  L 1023.71 548.18
  A 1.28 1.28 0.0 0 0 1023.20 548.69
  L 1021.01 552.67
  A 0.45 0.45 0.0 0 1 1020.18 552.58
  Q 1018.82 547.91 1014.06 546.50
  A 0.49 0.49 0.0 0 1 1014.02 545.58
  Q 1017.00 544.39 1018.86 542.16
  Z"
/>
<path fill="#e37910" d="
  M 78.00 542.93
  L 79.90 539.45
  A 0.51 0.51 0.0 0 1 80.83 539.55
  C 82.01 543.61 83.82 543.52 86.89 545.70
  Q 87.56 546.17 86.79 546.44
  L 84.13 547.39
  Q 83.59 547.58 83.26 548.05
  L 80.46 552.12
  A 0.53 0.53 0.0 0 1 79.52 551.99
  Q 78.08 547.93 74.07 546.44
  A 0.61 0.60 -48.7 0 1 74.00 545.34
  L 77.41 543.52
  Q 77.79 543.31 78.00 542.93
  Z"
/>
<path fill="#e37910" d="
  M 146.89 552.64
  C 144.96 549.49 145.12 548.01 141.20 546.56
  A 0.59 0.59 0.0 0 1 141.21 545.45
  Q 145.48 543.90 146.77 539.46
  A 0.53 0.52 -45.4 0 1 147.78 539.45
  Q 149.12 543.91 153.60 545.32
  A 0.70 0.70 0.0 0 1 153.60 546.66
  Q 149.11 548.09 147.66 552.55
  A 0.43 0.42 38.1 0 1 146.89 552.64
  Z"
/>
<path fill="#e37910" d="
  M 216.75 543.34
  L 221.02 545.69
  A 0.47 0.47 0.0 0 1 220.93 546.56
  Q 216.21 547.96 214.64 552.63
  A 0.48 0.48 0.0 0 1 213.73 552.62
  L 212.61 549.06
  A 0.46 0.43 8.2 0 0 212.41 548.81
  L 208.37 546.55
  A 0.69 0.69 0.0 0 1 208.48 545.29
  Q 212.54 543.88 213.63 539.64
  A 0.87 0.87 0.0 0 1 215.30 539.59
  L 216.37 542.89
  A 0.80 0.79 5.0 0 0 216.75 543.34
  Z"
/>
<path fill="#e37910" d="
  M 545.58 547.35
  Q 544.82 546.91 544.05 546.31
  A 0.53 0.52 -35.2 0 1 544.21 545.40
  Q 548.52 543.99 549.67 539.53
  A 0.59 0.58 42.7 0 1 550.79 539.49
  Q 551.41 541.31 552.47 542.74
  C 553.57 544.22 555.46 544.52 556.95 545.77
  A 0.49 0.49 0.0 0 1 556.78 546.62
  Q 552.22 548.03 550.65 552.57
  A 0.46 0.45 44.0 0 1 549.80 552.58
  C 548.76 549.91 548.09 548.80 545.58 547.35
  Z"
/>
<path fill="#e37910" d="
  M 881.57 547.35
  Q 880.82 546.90 880.04 546.31
  A 0.53 0.53 0.0 0 1 880.20 545.39
  Q 884.43 544.07 885.58 539.72
  A 0.67 0.67 0.0 0 1 886.85 539.66
  Q 887.52 541.50 888.67 543.02
  Q 889.00 543.47 889.48 543.73
  L 892.95 545.67
  A 0.50 0.50 0.0 0 1 892.85 546.59
  Q 888.25 548.01 886.64 552.56
  A 0.45 0.45 0.0 0 1 885.79 552.58
  C 884.74 549.90 884.09 548.81 881.57 547.35
  Z"
/>
<path fill="#e37910" d="
  M 566.67 544.02
  A 0.43 0.43 0.0 0 1 567.46 544.03
  Q 568.45 546.37 570.49 547.86
  Q 571.04 548.26 570.46 548.60
  Q 568.53 549.72 567.50 551.70
  Q 567.25 552.17 566.86 551.82
  L 562.99 548.40
  A 0.45 0.45 0.0 0 1 563.10 547.65
  Q 565.55 546.49 566.67 544.02
  Z"
/>
<path fill="#e37910" d="
  M 898.90 547.72
  Q 901.40 546.61 902.62 544.17
  A 0.36 0.36 0.0 0 1 903.22 544.11
  L 906.47 548.15
  Q 906.72 548.46 906.38 548.66
  Q 904.45 549.81 903.44 551.83
  Q 903.06 552.59 902.47 551.98
  L 898.81 548.19
  A 0.29 0.29 0.0 0 1 898.90 547.72
  Z"
/>
<path fill="#e37910" d="
  M 233.16 546.66
  L 234.88 547.57
  A 0.43 0.43 0.0 0 1 234.89 548.33
  Q 232.68 549.54 231.46 551.72
  Q 231.22 552.14 230.85 551.82
  L 226.98 548.40
  A 0.46 0.46 0.0 0 1 227.10 547.63
  Q 229.48 546.56 230.54 544.18
  A 0.49 0.48 40.6 0 1 231.39 544.12
  L 232.88 546.41
  A 0.79 0.78 86.2 0 0 233.16 546.66
  Z"
/>
<rect fill="#e37910" x="-2.91" y="-2.78" transform="translate(298.18,548.18) rotate(43.7)" width="5.82" height="5.56" rx="0.27"/>
<path fill="#e37910" d="
  M 632.55 545.83
  L 633.47 544.26
  A 0.55 0.55 0.0 0 1 634.42 544.26
  Q 635.66 546.41 637.85 547.63
  A 0.48 0.48 0.0 0 1 637.94 548.40
  L 634.23 551.80
  Q 633.79 552.20 633.51 551.67
  Q 632.36 549.43 630.02 548.44
  A 0.43 0.43 0.0 0 1 629.97 547.68
  L 631.83 546.56
  Q 632.28 546.29 632.55 545.83
  Z"
/>
<path fill="#e37910" d="
  M 968.43 546.04
  L 969.47 544.25
  A 0.55 0.55 0.0 0 1 970.43 544.26
  Q 971.64 546.44 973.84 547.62
  A 0.48 0.47 37.9 0 1 973.94 548.39
  L 970.22 551.80
  Q 969.78 552.20 969.51 551.67
  Q 968.37 549.43 966.02 548.44
  A 0.43 0.42 -49.2 0 1 965.97 547.68
  L 968.07 546.41
  A 1.04 1.00 -1.9 0 0 968.43 546.04
  Z"
/>
<path fill="#e37910" d="
  M 100.40 547.85
  A 0.33 0.33 0.0 0 1 100.48 548.39
  L 96.90 551.58
  A 0.52 0.51 44.5 0 1 96.23 551.58
  L 92.52 548.44
  A 0.40 0.39 -36.0 0 1 92.63 547.78
  Q 94.77 546.89 95.69 544.71
  A 0.80 0.80 0.0 0 1 97.14 544.66
  Q 98.25 546.81 100.40 547.85
  Z"
/>
<path fill="#e37910" d="
  M 162.43 545.96
  L 163.28 544.52
  A 0.49 0.48 -41.9 0 1 164.14 544.56
  Q 165.15 546.82 167.40 547.79
  Q 168.15 548.11 167.45 548.54
  Q 165.49 549.75 164.50 551.84
  Q 164.17 552.54 163.61 552.00
  L 159.99 548.46
  Q 159.43 547.91 160.11 547.53
  L 161.81 546.58
  Q 162.20 546.35 162.43 545.96
  Z"
/>
<path fill="#e37910" d="
  M 365.59 544.49
  C 366.86 546.53 367.38 546.50 369.32 547.78
  Q 369.80 548.10 369.36 548.47
  L 365.32 551.93
  A 0.51 0.51 0.0 0 1 364.53 551.78
  Q 363.51 549.81 361.67 548.58
  Q 360.90 548.07 361.75 547.69
  Q 363.88 546.73 364.79 544.56
  A 0.45 0.45 0.0 0 1 365.59 544.49
  Z"
/>
<path fill="#e37910" d="
  M 436.38 547.82
  A 0.36 0.36 0.0 0 1 436.46 548.41
  L 432.90 551.57
  A 0.50 0.49 -45.4 0 1 432.24 551.58
  L 428.52 548.45
  A 0.39 0.39 0.0 0 1 428.62 547.79
  Q 430.76 546.89 431.69 544.71
  A 0.81 0.80 -46.9 0 1 433.15 544.66
  Q 434.23 546.81 436.38 547.82
  Z"
/>
<path fill="#e37910" d="
  M 498.43 545.96
  L 499.29 544.51
  A 0.49 0.49 0.0 0 1 500.15 544.56
  Q 501.17 546.85 503.45 547.81
  A 0.39 0.39 0.0 0 1 503.50 548.50
  Q 501.52 549.73 500.50 551.84
  Q 500.16 552.55 499.60 552.00
  L 495.99 548.46
  Q 495.43 547.92 496.11 547.53
  L 497.79 546.58
  Q 498.19 546.35 498.43 545.96
  Z"
/>
<path fill="#e37910" d="
  M 701.59 544.50
  C 702.87 546.55 703.36 546.51 705.32 547.78
  Q 705.80 548.09 705.37 548.47
  L 701.32 551.93
  A 0.51 0.51 0.0 0 1 700.53 551.78
  Q 699.51 549.75 697.58 548.57
  Q 696.85 548.12 697.64 547.76
  Q 699.84 546.77 700.80 544.55
  A 0.45 0.44 41.1 0 1 701.59 544.50
  Z"
/>
<path fill="#e37910" d="
  M 772.40 547.84
  A 0.33 0.33 0.0 0 1 772.48 548.39
  L 768.90 551.58
  A 0.52 0.52 0.0 0 1 768.23 551.59
  L 764.53 548.46
  Q 764.06 548.06 764.62 547.81
  Q 766.76 546.83 767.74 544.65
  A 0.76 0.76 0.0 0 1 769.12 544.62
  Q 770.21 546.80 772.40 547.84
  Z"
/>
<path fill="#e37910" d="
  M 836.02 544.45
  C 837.24 546.37 837.59 546.49 839.40 547.82
  Q 839.94 548.22 839.38 548.58
  Q 837.49 549.81 836.50 551.85
  Q 836.15 552.55 835.60 552.01
  L 831.94 548.41
  A 0.58 0.57 -32.6 0 1 832.15 547.46
  Q 834.36 546.66 835.27 544.51
  A 0.43 0.42 40.1 0 1 836.02 544.45
  Z"
/>
<path fill="#e37910" d="
  M 1037.60 544.51
  C 1038.91 546.60 1039.41 546.57 1041.43 547.83
  Q 1041.83 548.08 1041.47 548.39
  L 1037.30 551.92
  A 0.51 0.49 -33.4 0 1 1036.53 551.77
  Q 1035.50 549.76 1033.58 548.57
  Q 1032.86 548.13 1033.63 547.77
  Q 1035.82 546.76 1036.82 544.56
  A 0.44 0.44 0.0 0 1 1037.60 544.51
  Z"
/>
<path fill="#e37910" d="
  M 67.79 562.65
  Q 66.48 564.80 65.30 567.08
  Q 64.91 567.85 64.66 567.02
  C 63.06 561.53 61.50 561.65 57.14 558.84
  A 0.42 0.42 0.0 0 1 57.17 558.12
  L 61.81 555.55
  Q 62.23 555.32 62.47 554.90
  L 65.05 550.28
  A 0.31 0.31 0.0 0 1 65.62 550.38
  Q 66.66 556.11 72.32 557.62
  A 0.74 0.74 0.0 0 1 72.52 558.96
  C 70.61 560.14 69.04 560.60 67.79 562.65
  Z"
/>
<path fill="#e37910" d="
  M 109.31 552.37
  Q 109.79 551.16 109.98 550.90
  Q 111.16 549.33 111.65 551.18
  Q 113.06 556.42 118.28 557.71
  A 0.78 0.78 0.0 0 1 118.36 559.20
  Q 113.01 561.19 111.17 566.62
  A 0.44 0.44 0.0 0 1 110.36 566.68
  L 108.02 561.99
  Q 107.76 561.48 107.27 561.20
  L 103.32 558.98
  A 0.50 0.49 42.0 0 1 103.27 558.14
  C 106.24 556.03 107.82 556.21 109.31 552.37
  Z"
/>
<path fill="#e37910" d="
  M 201.91 562.01
  L 200.15 566.58
  A 0.76 0.76 0.0 0 1 198.71 566.52
  Q 197.01 560.86 191.32 559.20
  A 0.42 0.41 -50.4 0 1 191.25 558.43
  L 196.24 555.91
  A 1.57 1.53 88.2 0 0 196.97 555.11
  L 198.97 550.24
  A 0.41 0.41 0.0 0 1 199.74 550.29
  Q 201.48 556.51 207.69 558.24
  A 0.47 0.47 0.0 0 1 207.76 559.13
  L 202.35 561.55
  A 0.83 0.80 -2.1 0 0 201.91 562.01
  Z"
/>
<path fill="#e37910" d="
  M 253.57 558.81
  C 249.16 560.84 247.16 561.74 245.76 566.64
  A 0.49 0.49 0.0 0 1 244.82 566.66
  Q 242.95 561.00 237.29 559.03
  A 0.56 0.56 0.0 0 1 237.32 557.97
  Q 243.15 556.33 244.71 550.31
  A 0.56 0.55 45.3 0 1 245.79 550.32
  Q 247.36 556.51 253.51 558.14
  A 0.36 0.36 0.0 0 1 253.57 558.81
  Z"
/>
<path fill="#e37910" d="
  M 263.34 561.36
  L 259.36 559.73
  A 0.97 0.97 0.0 0 1 259.40 557.92
  Q 264.74 555.98 266.12 550.39
  A 0.53 0.53 0.0 0 1 267.12 550.29
  L 269.37 555.24
  Q 269.61 555.77 270.12 556.04
  L 274.57 558.40
  A 0.46 0.46 0.0 0 1 274.49 559.24
  Q 268.87 561.04 267.21 566.73
  A 0.43 0.43 0.0 0 1 266.41 566.80
  L 263.97 561.94
  Q 263.76 561.54 263.34 561.36
  Z"
/>
<path fill="#e37910" d="
  M 314.94 562.18
  L 312.52 566.74
  A 0.38 0.38 0.0 0 1 311.82 566.67
  Q 310.05 561.14 304.58 559.22
  A 0.49 0.49 0.0 0 1 304.51 558.32
  L 308.73 556.10
  Q 309.32 555.79 309.60 555.20
  L 311.85 550.39
  A 0.42 0.42 0.0 0 1 312.60 550.38
  L 315.12 555.23
  A 1.73 1.68 0.4 0 0 315.86 555.96
  L 320.61 558.39
  Q 321.36 558.77 320.60 559.14
  L 315.65 561.51
  Q 315.18 561.73 314.94 562.18
  Z"
/>
<path fill="#e37910" d="
  M 330.22 561.25
  L 326.48 559.09
  A 0.78 0.77 -40.3 0 1 326.60 557.70
  C 331.07 556.01 331.31 554.39 333.29 550.45
  Q 333.61 549.81 333.99 550.41
  C 336.27 553.95 336.59 556.83 341.35 557.69
  A 0.80 0.80 0.0 0 1 341.46 559.24
  Q 335.94 561.08 334.18 566.61
  A 0.42 0.42 0.0 0 1 333.41 566.68
  L 330.96 562.02
  Q 330.70 561.53 330.22 561.25
  Z"
/>
<path fill="#e37910" d="
  M 376.62 561.62
  L 371.42 559.10
  Q 370.70 558.75 371.41 558.38
  L 376.35 555.85
  A 0.98 0.98 0.0 0 0 376.75 555.45
  L 379.37 550.37
  A 0.42 0.42 0.0 0 1 380.14 550.41
  L 381.98 555.20
  A 0.95 0.93 2.9 0 0 382.42 555.68
  L 387.53 558.33
  Q 388.14 558.64 387.58 559.04
  C 386.03 560.11 384.06 560.53 382.92 561.83
  Q 381.23 563.75 380.19 566.47
  A 0.52 0.51 -47.9 0 1 379.25 566.52
  L 376.99 562.00
  A 0.85 0.83 1.5 0 0 376.62 561.62
  Z"
/>
<path fill="#e37910" d="
  M 408.01 557.49
  A 0.95 0.95 0.0 0 1 408.21 559.23
  L 404.08 561.53
  A 1.46 1.45 86.3 0 0 403.45 562.25
  L 401.98 566.00
  Q 400.73 569.17 399.96 565.85
  Q 398.77 560.78 393.73 559.40
  A 0.84 0.84 0.0 0 1 393.55 557.85
  L 397.74 555.61
  Q 398.24 555.34 398.52 554.84
  L 401.03 550.30
  A 0.32 0.32 0.0 0 1 401.62 550.40
  Q 402.58 555.93 408.01 557.49
  Z"
/>
<path fill="#e37910" d="
  M 442.36 560.77
  C 441.45 560.15 440.40 560.02 439.45 559.52
  A 0.94 0.94 0.0 0 1 439.56 557.80
  Q 444.60 555.97 446.03 550.71
  A 0.74 0.73 45.6 0 1 447.45 550.73
  Q 448.85 556.26 454.27 557.74
  A 0.77 0.77 0.0 0 1 454.34 559.21
  Q 448.94 561.25 447.09 566.78
  A 0.55 0.55 0.0 0 1 446.03 566.69
  Q 445.44 562.87 442.36 560.77
  Z"
/>
<path fill="#e37910" d="
  M 464.37 556.04
  C 466.06 554.76 466.78 552.19 467.99 550.44
  Q 468.37 549.89 468.68 550.49
  L 471.17 555.32
  Q 471.40 555.77 471.85 556.00
  L 476.45 558.29
  Q 477.19 558.65 476.40 558.89
  Q 470.40 560.66 468.74 566.71
  A 0.46 0.45 43.4 0 1 467.87 566.73
  Q 465.98 561.11 460.40 559.16
  A 0.57 0.57 0.0 0 1 460.23 558.18
  C 461.52 557.15 463.23 556.92 464.37 556.04
  Z"
/>
<path fill="#e37910" d="
  M 510.24 561.26
  L 507.06 559.42
  Q 504.75 558.08 507.31 557.34
  Q 512.49 555.84 513.23 550.49
  Q 513.35 549.61 513.89 550.31
  C 515.13 551.95 515.61 554.09 517.06 555.29
  Q 518.87 556.79 521.33 557.65
  A 0.92 0.92 0.0 0 1 521.28 559.40
  Q 515.45 561.10 514.46 567.14
  A 0.36 0.35 -54.8 0 1 513.80 567.26
  L 510.94 561.98
  Q 510.69 561.52 510.24 561.26
  Z"
/>
<path fill="#e37910" d="
  M 538.12 561.75
  L 535.60 566.71
  A 0.36 0.36 0.0 0 1 534.96 566.72
  L 532.34 561.77
  A 0.36 0.36 0.0 0 0 532.19 561.62
  L 527.28 559.04
  A 0.36 0.36 0.0 0 1 527.29 558.40
  L 532.18 555.97
  A 0.36 0.36 0.0 0 0 532.34 555.80
  L 534.92 550.25
  A 0.36 0.36 0.0 0 1 535.57 550.24
  L 538.22 555.47
  A 0.36 0.36 0.0 0 0 538.37 555.62
  L 543.76 558.49
  A 0.36 0.36 0.0 0 1 543.74 559.13
  L 538.30 561.59
  A 0.36 0.36 0.0 0 0 538.12 561.75
  Z"
/>
<path fill="#e37910" d="
  M 585.59 560.59
  C 583.73 561.37 582.67 564.89 581.52 566.63
  A 0.44 0.44 0.0 0 1 580.74 566.52
  Q 578.98 561.11 573.60 559.19
  A 0.73 0.73 0.0 0 1 573.58 557.83
  L 577.02 556.49
  Q 577.61 556.27 577.92 555.72
  L 580.98 550.41
  A 0.38 0.38 0.0 0 1 581.65 550.43
  L 584.02 555.15
  Q 584.28 555.69 584.82 555.96
  L 589.50 558.29
  Q 589.98 558.53 589.50 558.78
  Q 587.51 559.79 585.59 560.59
  Z"
/>
<path fill="#e37910" d="
  M 599.46 561.48
  L 594.26 559.18
  A 0.55 0.54 -39.7 0 1 594.36 558.15
  Q 600.38 556.70 601.99 550.75
  A 0.76 0.76 0.0 0 1 603.47 550.80
  C 604.56 556.24 606.53 555.93 610.60 558.46
  A 0.44 0.44 0.0 0 1 610.50 559.25
  Q 605.00 560.99 603.29 566.48
  A 0.80 0.79 -46.7 0 1 601.79 566.53
  L 600.16 562.21
  Q 599.96 561.70 599.46 561.48
  Z"
/>
<path fill="#e37910" d="
  M 645.55 555.27
  L 647.85 550.40
  A 0.41 0.41 0.0 0 1 648.59 550.38
  L 651.15 555.27
  A 1.53 1.48 0.5 0 0 651.80 555.91
  L 656.59 558.43
  Q 657.39 558.85 656.55 559.17
  Q 654.23 560.07 651.89 560.87
  A 0.26 0.26 0.0 0 0 651.75 560.98
  L 648.43 566.72
  A 0.34 0.34 0.0 0 1 647.81 566.66
  Q 646.02 561.11 640.50 559.21
  A 0.46 0.46 0.0 0 1 640.44 558.37
  L 644.77 556.08
  Q 645.30 555.81 645.55 555.27
  Z"
/>
<path fill="#e37910" d="
  M 677.61 559.08
  C 673.33 561.05 672.00 562.32 670.08 566.64
  A 0.38 0.38 0.0 0 1 669.39 566.66
  L 666.79 561.67
  A 1.34 1.31 -1.7 0 0 666.11 561.04
  L 662.68 559.61
  A 1.04 1.03 -44.2 0 1 662.71 557.69
  C 667.13 555.97 667.25 554.30 669.28 550.46
  Q 669.61 549.84 670.00 550.43
  C 672.38 554.01 672.57 556.89 677.43 557.70
  A 0.73 0.73 0.0 0 1 677.61 559.08
  Z"
/>
<path fill="#e37910" d="
  M 713.38 563.33
  Q 711.10 560.44 707.43 559.14
  A 0.39 0.39 0.0 0 1 707.36 558.44
  C 711.71 555.78 713.52 555.84 715.11 550.43
  Q 715.31 549.78 715.62 550.38
  L 718.03 555.08
  Q 718.33 555.67 718.91 555.97
  L 723.52 558.31
  A 0.46 0.45 -45.2 0 1 723.52 559.12
  L 719.38 561.29
  Q 718.87 561.55 718.58 562.05
  L 715.90 566.64
  A 0.59 0.59 0.0 0 1 714.87 566.63
  C 714.24 565.50 714.16 564.32 713.38 563.33
  Z"
/>
<path fill="#e37910" d="
  M 775.51 559.61
  Q 774.72 559.34 774.99 558.55
  Q 775.01 558.49 775.44 558.06
  Q 775.67 557.83 775.98 557.69
  Q 780.87 555.56 782.02 550.60
  A 0.74 0.74 0.0 0 1 783.46 550.60
  Q 784.77 556.21 790.18 557.72
  A 0.82 0.82 0.0 0 1 790.24 559.28
  Q 784.96 561.24 783.18 566.62
  A 0.41 0.40 -52.9 0 1 782.46 566.72
  C 779.86 562.87 781.17 561.51 775.51 559.61
  Z"
/>
<path fill="#e37910" d="
  M 871.68 550.37
  C 873.83 555.10 874.80 556.24 879.60 558.35
  A 0.42 0.42 0.0 0 1 879.58 559.13
  L 874.85 560.97
  A 1.01 0.99 2.2 0 0 874.33 561.44
  L 871.66 566.53
  Q 871.34 567.14 870.95 566.57
  C 869.84 564.96 869.33 562.92 867.93 561.75
  Q 866.00 560.12 863.36 559.18
  A 0.50 0.49 -43.3 0 1 863.39 558.24
  C 868.22 556.85 868.44 554.19 871.03 550.32
  Q 871.40 549.76 871.68 550.37
  Z"
/>
<path fill="#e37910" d="
  M 909.77 559.24
  Q 908.37 558.54 909.74 557.79
  L 913.80 555.56
  A 1.92 1.89 -0.8 0 0 914.59 554.76
  L 916.95 550.36
  Q 917.40 549.51 917.74 550.41
  L 919.49 554.98
  A 0.57 0.55 5.4 0 0 919.73 555.26
  L 924.30 557.81
  A 0.80 0.79 -44.7 0 1 924.29 559.20
  L 920.59 561.23
  A 0.80 0.74 -88.9 0 0 920.28 561.55
  L 917.59 566.61
  Q 917.25 567.24 916.90 566.61
  C 914.56 562.41 914.23 561.46 909.77 559.24
  Z"
/>
<path fill="#e37910" d="
  M 980.06 556.41
  Q 982.59 553.77 983.85 550.31
  A 0.37 0.37 0.0 0 1 984.53 550.26
  L 987.11 555.20
  A 1.81 1.81 0.0 0 0 987.86 555.95
  L 992.61 558.44
  Q 993.40 558.86 992.57 559.17
  L 988.14 560.82
  A 0.26 0.24 2.9 0 0 988.03 560.91
  Q 985.86 563.58 984.55 566.78
  A 0.36 0.36 0.0 0 1 983.87 566.76
  Q 981.99 561.16 976.45 559.10
  A 0.56 0.56 0.0 0 1 976.34 558.11
  Q 977.88 557.12 979.62 556.66
  A 0.89 0.86 14.4 0 0 980.06 556.41
  Z"
/>
<path fill="#e37910" d="
  M 998.05 559.40
  A 0.44 0.44 0.0 0 1 997.90 558.68
  Q 999.63 556.89 1002.02 556.11
  A 1.15 1.14 3.9 0 0 1002.67 555.55
  L 1005.31 550.48
  Q 1005.62 549.88 1006.01 550.44
  C 1008.68 554.34 1008.71 556.70 1013.62 558.26
  A 0.49 0.49 0.0 0 1 1013.62 559.20
  Q 1007.96 560.98 1006.17 566.61
  A 0.41 0.41 0.0 0 1 1005.41 566.68
  L 1002.82 561.72
  Q 1002.54 561.20 1002.00 560.98
  L 998.05 559.40
  Z"
/>
<path fill="#e37910" d="
  M 1043.80 558.03
  Q 1049.65 556.41 1051.02 550.47
  Q 1051.22 549.62 1051.62 550.40
  L 1054.06 555.13
  Q 1054.31 555.63 1054.81 555.88
  L 1059.53 558.32
  Q 1060.04 558.59 1059.58 558.94
  C 1056.26 561.44 1053.45 561.26 1052.27 566.23
  A 0.87 0.87 0.0 0 1 1050.60 566.28
  Q 1048.99 561.03 1043.77 559.32
  A 0.67 0.67 0.0 0 1 1043.80 558.03
  Z"
/>
<path fill="#e37910" d="
  M 131.73 566.43
  Q 129.93 561.17 124.73 559.32
  Q 123.70 558.95 124.35 558.03
  Q 124.44 557.89 125.12 557.72
  C 129.05 556.71 130.40 553.45 131.86 550.49
  A 0.45 0.45 0.0 0 1 132.67 550.48
  L 135.14 555.26
  A 1.51 1.46 89.6 0 0 135.79 555.92
  L 140.58 558.42
  Q 141.33 558.81 140.55 559.12
  L 136.00 560.94
  A 1.49 1.46 2.8 0 0 135.26 561.60
  L 132.63 566.50
  Q 132.09 567.50 131.73 566.43
  Z"
/>
<path fill="#e37910" d="
  M 178.57 550.47
  C 180.10 554.37 180.86 556.49 185.26 557.53
  A 0.88 0.88 0.0 0 1 185.47 559.17
  L 181.05 561.50
  A 0.93 0.93 0.0 0 0 180.64 561.94
  L 178.42 567.11
  Q 177.99 568.09 177.57 567.11
  L 175.45 562.10
  A 0.79 0.77 4.3 0 0 175.13 561.74
  L 170.54 559.09
  A 0.69 0.69 0.0 0 1 170.56 557.88
  L 174.77 555.61
  A 2.02 1.99 -0.8 0 0 175.58 554.79
  L 177.90 550.43
  Q 178.27 549.73 178.57 550.47
  Z"
/>
<path fill="#e37910" d="
  M 744.09 557.61
  A 0.96 0.95 -44.4 0 1 744.07 559.42
  Q 738.51 561.23 737.50 567.04
  A 0.38 0.38 0.0 0 1 736.79 567.16
  L 733.80 561.76
  A 1.34 1.34 0.0 0 0 733.26 561.22
  L 729.47 559.07
  A 0.69 0.68 -43.2 0 1 729.51 557.86
  C 733.21 556.05 735.44 555.09 736.24 550.59
  A 0.53 0.53 0.0 0 1 737.27 550.53
  Q 738.87 555.81 744.09 557.61
  Z"
/>
<path fill="#e37910" d="
  M 803.89 566.81
  Q 802.05 561.23 796.56 559.23
  A 0.77 0.77 0.0 0 1 796.58 557.77
  Q 801.99 555.94 803.75 550.48
  A 0.59 0.59 0.0 0 1 804.88 550.52
  Q 806.23 555.91 811.35 557.79
  A 0.73 0.73 0.0 0 1 811.38 559.15
  Q 806.22 561.33 804.69 566.79
  A 0.42 0.42 0.0 0 1 803.89 566.81
  Z"
/>
<path fill="#e37910" d="
  M 842.71 557.58
  C 847.30 556.44 847.43 554.52 849.10 550.66
  A 0.65 0.65 0.0 0 1 850.31 550.72
  Q 852.05 556.05 857.45 557.72
  A 0.83 0.83 0.0 0 1 857.46 559.30
  C 852.61 560.87 852.59 562.81 849.92 566.67
  A 0.43 0.43 0.0 0 1 849.15 566.54
  Q 847.72 561.20 842.60 559.19
  A 0.85 0.85 0.0 0 1 842.71 557.58
  Z"
/>
<path fill="#e37910" d="
  M 936.40 563.23
  Q 934.52 560.53 931.43 559.84
  Q 928.65 559.22 931.19 557.94
  L 935.29 555.88
  A 1.36 1.36 0.0 0 0 935.88 555.29
  L 938.16 550.66
  A 0.36 0.36 0.0 0 1 938.80 550.66
  L 941.05 555.16
  A 1.44 1.42 -89.5 0 0 941.63 555.76
  L 946.73 558.52
  A 0.37 0.37 0.0 0 1 946.66 559.20
  Q 941.06 560.92 939.28 566.48
  A 0.73 0.72 -55.7 0 1 938.03 566.72
  C 937.18 565.68 937.12 564.26 936.40 563.23
  Z"
/>
<path fill="#e37910" d="
  M 154.77 563.45
  A 0.72 0.71 -42.5 0 1 153.40 563.39
  Q 152.61 560.18 149.40 559.14
  A 0.51 0.50 -50.8 0 1 149.31 558.22
  Q 152.36 556.51 154.03 553.44
  A 0.40 0.40 0.0 0 1 154.77 553.58
  Q 155.24 556.81 158.39 557.81
  A 0.66 0.66 0.0 0 1 158.50 559.03
  Q 155.79 560.49 154.77 563.45
  Z"
/>
<path fill="#e37910" d="
  M 89.08 556.56
  L 91.63 558.02
  A 0.58 0.58 0.0 0 1 91.58 559.06
  Q 88.44 560.44 87.11 563.60
  A 0.42 0.41 -43.2 0 1 86.33 563.58
  Q 85.29 560.49 82.44 558.98
  A 0.52 0.52 0.0 0 1 82.43 558.06
  Q 85.20 556.52 86.28 553.54
  A 0.44 0.43 38.9 0 1 87.06 553.46
  L 88.95 556.44
  A 0.34 0.31 84.8 0 0 89.08 556.56
  Z"
/>
<path fill="#e37910" d="
  M 223.67 556.81
  L 226.26 558.27
  Q 226.94 558.65 226.20 558.91
  Q 222.86 560.06 221.84 563.51
  A 0.51 0.50 -48.4 0 1 220.89 563.57
  Q 219.57 560.40 216.43 559.07
  A 0.54 0.54 0.0 0 1 216.40 558.09
  Q 219.46 556.57 220.95 553.50
  A 0.45 0.44 -45.4 0 1 221.75 553.49
  L 223.09 556.20
  Q 223.28 556.60 223.67 556.81
  Z"
/>
<path fill="#e37910" d="
  M 286.61 556.24
  L 287.92 553.43
  Q 288.28 552.66 288.67 553.42
  L 290.09 556.19
  Q 290.35 556.71 290.87 556.97
  L 293.53 558.30
  A 0.47 0.46 48.0 0 1 293.49 559.15
  Q 290.21 560.39 288.80 563.56
  A 0.49 0.49 0.0 0 1 287.89 563.53
  Q 286.73 560.46 283.69 559.24
  A 0.52 0.51 -49.1 0 1 283.63 558.31
  L 285.89 557.03
  Q 286.38 556.75 286.61 556.24
  Z"
/>
<path fill="#e37910" d="
  M 355.47 563.66
  Q 354.00 560.91 351.24 559.44
  A 0.70 0.69 44.1 0 1 351.22 558.23
  Q 354.08 556.56 355.31 553.51
  A 0.45 0.45 0.0 0 1 356.15 553.51
  Q 357.46 556.76 360.50 558.43
  A 0.41 0.41 0.0 0 1 360.45 559.18
  Q 357.32 560.43 356.16 563.61
  A 0.38 0.38 0.0 0 1 355.47 563.66
  Z"
/>
<path fill="#e37910" d="
  M 425.41 556.74
  L 427.64 558.02
  A 0.57 0.57 0.0 0 1 427.59 559.04
  Q 424.47 560.46 423.11 563.61
  A 0.42 0.42 0.0 0 1 422.32 563.58
  Q 421.29 560.49 418.44 558.98
  A 0.52 0.52 0.0 0 1 418.43 558.06
  Q 421.21 556.52 422.27 553.53
  A 0.45 0.44 39.1 0 1 423.07 553.45
  L 424.65 556.00
  Q 424.93 556.46 425.41 556.74
  Z"
/>
<path fill="#e37910" d="
  M 490.60 563.83
  A 0.56 0.56 0.0 0 1 489.55 563.86
  Q 488.27 560.63 485.31 558.92
  A 0.50 0.50 0.0 0 1 485.37 558.03
  Q 488.48 556.79 489.40 553.64
  A 0.42 0.42 0.0 0 1 490.19 553.59
  Q 491.47 556.62 494.49 557.94
  A 0.59 0.59 0.0 0 1 494.54 559.00
  Q 491.64 560.60 490.60 563.83
  Z"
/>
<path fill="#e37910" d="
  M 559.66 556.83
  L 562.23 558.24
  Q 562.93 558.63 562.18 558.90
  Q 558.85 560.10 557.83 563.51
  A 0.50 0.49 41.8 0 1 556.90 563.56
  Q 555.54 560.38 552.36 559.01
  A 0.49 0.48 43.7 0 1 552.34 558.13
  Q 555.44 556.60 556.94 553.49
  A 0.46 0.46 0.0 0 1 557.76 553.49
  L 559.10 556.23
  A 1.33 1.31 2.5 0 0 559.66 556.83
  Z"
/>
<path fill="#e37910" d="
  M 625.92 561.05
  L 624.96 563.51
  A 0.57 0.57 0.0 0 1 623.90 563.52
  Q 622.66 560.45 619.58 559.18
  A 0.41 0.41 0.0 0 1 619.52 558.46
  Q 622.48 556.55 624.05 553.36
  A 0.41 0.41 0.0 0 1 624.81 553.44
  Q 625.79 557.20 629.52 558.23
  A 0.50 0.50 0.0 0 1 629.58 559.18
  L 626.51 560.44
  Q 626.08 560.62 625.92 561.05
  Z"
/>
<path fill="#e37910" d="
  M 694.01 557.04
  L 696.58 558.40
  A 0.40 0.40 0.0 0 1 696.54 559.13
  Q 693.39 560.39 692.08 563.52
  A 0.69 0.69 0.0 0 1 690.79 563.50
  Q 689.62 560.36 686.50 559.11
  A 0.46 0.46 0.0 0 1 686.52 558.25
  Q 690.08 557.04 691.27 553.50
  A 0.50 0.49 43.6 0 1 692.20 553.48
  L 693.26 556.19
  Q 693.48 556.76 694.01 557.04
  Z"
/>
<path fill="#e37910" d="
  M 756.36 560.31
  L 754.20 559.42
  A 0.56 0.56 0.0 0 1 754.12 558.43
  Q 757.00 556.63 758.31 553.54
  A 0.44 0.44 0.0 0 1 759.10 553.50
  Q 759.87 554.91 760.82 556.18
  Q 761.10 556.56 761.51 556.80
  L 763.64 558.03
  A 0.58 0.58 0.0 0 1 763.57 559.07
  Q 760.43 560.41 759.13 563.55
  A 0.41 0.40 41.7 0 1 758.40 563.59
  L 756.82 560.72
  A 0.99 0.96 -2.6 0 0 756.36 560.31
  Z"
/>
<path fill="#e37910" d="
  M 824.13 555.78
  L 825.38 553.46
  A 0.44 0.44 0.0 0 1 826.17 553.51
  Q 827.41 556.66 830.55 557.97
  A 0.62 0.62 0.0 0 1 830.54 559.12
  Q 827.14 560.40 826.47 563.96
  A 0.43 0.43 0.0 0 1 825.65 564.04
  Q 824.38 560.79 821.47 559.03
  A 0.56 0.55 42.2 0 1 821.42 558.11
  L 823.44 556.58
  Q 823.87 556.26 824.13 555.78
  Z"
/>
<path fill="#e37910" d="
  M 895.45 556.61
  L 897.49 557.98
  Q 898.29 558.51 897.47 559.01
  Q 894.84 560.58 893.80 563.52
  A 0.47 0.47 0.0 0 1 892.92 563.55
  Q 891.54 560.44 888.45 559.05
  A 0.53 0.53 0.0 0 1 888.42 558.10
  Q 891.45 556.55 892.95 553.50
  A 0.43 0.43 0.0 0 1 893.72 553.49
  L 895.12 556.24
  A 1.02 0.97 -88.4 0 0 895.45 556.61
  Z"
/>
<path fill="#e37910" d="
  M 960.93 563.53
  A 0.56 0.55 45.4 0 1 959.90 563.52
  Q 958.70 560.50 955.72 559.25
  A 0.50 0.50 0.0 0 1 955.64 558.37
  Q 958.45 556.55 959.94 553.52
  A 0.51 0.51 0.0 0 1 960.90 553.62
  Q 961.82 557.19 965.38 558.16
  A 0.58 0.58 0.0 0 1 965.44 559.26
  L 962.48 560.43
  Q 962.11 560.57 961.97 560.93
  L 960.93 563.53
  Z"
/>
<path fill="#e37910" d="
  M 1029.76 556.89
  L 1032.54 558.40
  A 0.43 0.43 0.0 0 1 1032.49 559.18
  Q 1029.36 560.39 1028.10 563.50
  A 0.71 0.70 -44.3 0 1 1026.79 563.49
  Q 1025.60 560.36 1022.49 559.10
  A 0.46 0.46 0.0 0 1 1022.52 558.24
  Q 1025.96 557.12 1027.14 553.73
  Q 1027.44 552.86 1027.84 553.68
  L 1029.05 556.15
  Q 1029.29 556.63 1029.76 556.89
  Z"
/>
<path fill="#e37910" d="
  M 144.89 568.17
  L 146.90 564.37
  A 0.41 0.41 0.0 0 1 147.65 564.43
  Q 149.20 568.86 153.42 570.86
  A 0.46 0.46 0.0 0 1 153.39 571.71
  Q 149.27 573.32 147.72 577.48
  A 0.45 0.45 0.0 0 1 146.90 577.53
  Q 144.93 573.67 141.03 571.70
  A 0.57 0.57 0.0 0 1 140.99 570.71
  L 144.55 568.53
  A 0.91 0.89 89.2 0 0 144.89 568.17
  Z"
/>
<path fill="#e37910" d="
  M 164.12 564.45
  C 165.19 566.30 165.32 567.17 167.53 568.45
  A 0.43 0.43 0.0 0 1 167.48 569.22
  Q 165.13 570.14 164.22 572.48
  Q 163.89 573.34 163.47 572.51
  Q 162.42 570.44 160.28 569.53
  A 0.52 0.51 30.8 0 1 160.07 568.73
  L 163.56 564.41
  Q 163.88 564.02 164.12 564.45
  Z"
/>
<path fill="#e37910" d="
  M 299.67 566.66
  L 301.96 568.63
  Q 302.51 569.10 301.85 569.41
  Q 299.49 570.52 298.41 572.89
  A 0.44 0.44 0.0 0 1 297.61 572.88
  Q 296.64 570.52 294.27 569.50
  A 0.55 0.54 42.7 0 1 294.23 568.52
  Q 296.80 567.13 297.92 564.42
  Q 298.30 563.49 298.63 564.43
  L 299.13 565.87
  Q 299.29 566.34 299.67 566.66
  Z"
/>
<path fill="#e37910" d="
  M 489.54 570.93
  A 0.38 0.38 0.0 0 1 489.52 571.63
  Q 485.32 573.25 483.71 577.47
  A 0.45 0.44 -48.2 0 1 482.90 577.52
  Q 480.93 573.70 477.07 571.71
  A 0.65 0.64 -42.3 0 1 477.13 570.54
  Q 481.47 568.82 482.80 564.32
  A 0.40 0.40 0.0 0 1 483.56 564.30
  Q 485.18 568.88 489.54 570.93
  Z"
/>
<path fill="#e37910" d="
  M 701.58 564.34
  C 703.20 566.18 703.12 567.05 705.55 568.46
  A 0.43 0.43 0.0 0 1 705.47 569.24
  Q 702.86 570.11 701.60 572.55
  A 0.46 0.45 -41.9 0 1 700.77 572.51
  Q 699.86 570.14 697.52 569.20
  A 0.45 0.45 0.0 0 1 697.47 568.39
  Q 699.88 567.04 700.88 564.46
  A 0.42 0.42 0.0 0 1 701.58 564.34
  Z"
/>
<path fill="#e37910" d="
  M 836.06 564.35
  C 837.19 566.25 837.24 567.12 839.54 568.45
  A 0.43 0.43 0.0 0 1 839.48 569.23
  Q 837.13 570.14 836.21 572.47
  Q 835.88 573.30 835.45 572.51
  Q 834.12 570.06 831.43 569.20
  A 0.42 0.42 0.0 0 1 831.37 568.42
  Q 834.08 567.10 835.36 564.39
  Q 835.68 563.71 836.06 564.35
  Z"
/>
<path fill="#e37910" d="
  M 281.24 577.48
  Q 279.81 573.04 275.31 571.72
  A 0.42 0.42 0.0 0 1 275.27 570.93
  Q 279.59 569.22 281.04 564.79
  A 0.63 0.63 0.0 0 1 282.22 564.74
  L 283.60 567.94
  Q 283.84 568.49 284.38 568.76
  L 287.79 570.43
  A 0.55 0.55 0.0 0 1 287.94 571.31
  C 285.63 573.69 283.64 574.18 282.13 577.53
  A 0.48 0.48 0.0 0 1 281.24 577.48
  Z"
/>
<path fill="#e37910" d="
  M 346.68 568.18
  L 348.10 564.60
  A 0.57 0.57 0.0 0 1 349.17 564.61
  Q 350.86 569.28 355.60 570.82
  A 0.47 0.47 0.0 0 1 355.59 571.72
  Q 350.64 573.11 349.40 578.00
  A 0.43 0.43 0.0 0 1 348.57 578.03
  Q 347.05 573.40 342.51 571.69
  Q 341.63 571.36 342.45 570.90
  L 346.11 568.83
  A 1.34 1.31 -4.6 0 0 346.68 568.18
  Z"
/>
<path fill="#e37910" d="
  M 432.35 564.38
  A 0.26 0.26 0.0 0 1 432.84 564.41
  Q 433.80 567.22 436.54 568.41
  A 0.44 0.44 0.0 0 1 436.52 569.23
  Q 434.11 570.13 433.11 572.51
  A 0.61 0.61 0.0 0 1 432.03 572.61
  L 430.86 570.82
  Q 430.61 570.44 430.22 570.20
  L 428.41 569.10
  A 0.39 0.39 0.0 0 1 428.43 568.42
  Q 431.09 567.07 432.35 564.38
  Z"
/>
<path fill="#e37910" d="
  M 556.38 571.70
  C 552.69 573.38 552.79 573.94 551.24 577.47
  A 0.73 0.73 0.0 0 1 549.92 577.50
  Q 549.14 575.94 547.97 574.54
  C 546.91 573.28 545.15 572.67 543.88 571.34
  Q 543.31 570.74 544.11 570.55
  Q 548.81 569.44 550.02 564.66
  A 0.42 0.42 0.0 0 1 550.83 564.63
  Q 552.29 568.94 556.39 570.85
  A 0.47 0.47 0.0 0 1 556.38 571.70
  Z"
/>
<path fill="#e37910" d="
  M 568.66 570.84
  L 567.37 572.83
  Q 566.88 573.58 566.49 572.77
  Q 565.38 570.42 562.98 569.36
  A 0.50 0.49 43.2 0 1 562.95 568.47
  Q 565.49 567.15 566.40 564.51
  A 0.43 0.43 0.0 0 1 567.21 564.51
  Q 568.18 567.26 570.74 568.60
  A 0.47 0.46 -47.7 0 1 570.77 569.40
  L 568.85 570.65
  A 0.71 0.55 -7.0 0 0 568.66 570.84
  Z"
/>
<path fill="#e37910" d="
  M 621.55 569.62
  C 622.23 570.07 622.97 570.07 623.65 570.39
  A 0.74 0.74 0.0 0 1 623.70 571.71
  Q 620.04 573.80 618.01 577.49
  A 0.75 0.75 0.0 0 1 616.62 577.26
  Q 615.79 572.80 611.30 571.78
  A 0.44 0.43 40.9 0 1 611.24 570.95
  Q 615.74 569.20 617.05 564.53
  A 0.36 0.35 43.8 0 1 617.73 564.52
  Q 618.86 567.82 621.55 569.62
  Z"
/>
<path fill="#e37910" d="
  M 822.02 569.00
  L 825.46 570.83
  A 0.46 0.45 -42.3 0 1 825.42 571.65
  Q 821.12 573.47 819.46 577.89
  A 0.45 0.45 0.0 0 1 818.61 577.87
  Q 817.28 573.58 813.06 571.78
  A 0.67 0.67 0.0 0 1 813.09 570.54
  Q 817.45 568.91 818.74 564.41
  A 0.44 0.44 0.0 0 1 819.56 564.34
  L 821.45 568.40
  Q 821.64 568.79 822.02 569.00
  Z"
/>
<path fill="#e37910" d="
  M 884.53 567.75
  L 885.88 564.44
  A 0.46 0.45 46.9 0 1 886.73 564.47
  Q 888.26 568.94 892.51 570.91
  A 0.46 0.46 0.0 0 1 892.44 571.77
  Q 888.20 572.97 887.38 577.28
  A 0.76 0.76 0.0 0 1 885.95 577.49
  Q 883.89 573.50 879.79 571.56
  A 0.45 0.45 0.0 0 1 879.77 570.76
  L 883.87 568.49
  A 1.49 1.46 87.2 0 0 884.53 567.75
  Z"
/>
<path fill="#e37910" d="
  M 906.22 569.09
  L 903.38 572.66
  A 0.33 0.33 0.0 0 1 902.89 572.70
  L 899.14 569.05
  A 0.33 0.33 0.0 0 1 899.12 568.60
  L 902.39 564.75
  A 0.33 0.33 0.0 0 1 902.89 564.75
  L 906.21 568.67
  A 0.33 0.33 0.0 0 1 906.22 569.09
  Z"
/>
<path fill="#e37910" d="
  M 1020.34 577.65
  Q 1018.86 573.21 1014.44 571.69
  A 0.42 0.42 0.0 0 1 1014.41 570.91
  Q 1018.73 569.02 1020.11 564.52
  A 0.45 0.45 0.0 0 1 1020.93 564.42
  L 1023.21 568.25
  Q 1023.49 568.71 1023.96 568.97
  L 1027.56 570.93
  A 0.40 0.40 0.0 0 1 1027.51 571.66
  Q 1023.00 573.34 1021.01 577.68
  A 0.36 0.36 0.0 0 1 1020.34 577.65
  Z"
/>
<path fill="#e37910" d="
  M 83.97 573.01
  Q 81.53 574.91 80.41 578.09
  A 0.41 0.41 0.0 0 1 79.63 578.09
  Q 78.06 573.42 73.54 571.71
  Q 72.62 571.36 73.48 570.89
  L 77.32 568.77
  A 1.25 1.25 0.0 0 0 77.79 568.30
  L 79.58 565.07
  A 0.46 0.46 0.0 0 1 80.41 565.12
  Q 82.08 569.32 86.40 570.77
  A 0.46 0.46 0.0 0 1 86.53 571.57
  C 85.71 572.19 84.65 572.48 83.97 573.01
  Z"
/>
<path fill="#e37910" d="
  M 234.87 569.34
  C 232.99 570.67 232.68 571.01 231.31 572.86
  Q 230.84 573.48 230.50 572.78
  Q 229.41 570.49 227.12 569.41
  A 0.45 0.45 0.0 0 1 227.10 568.61
  Q 229.44 567.42 230.64 565.09
  A 0.46 0.46 0.0 0 1 231.47 565.11
  Q 232.50 567.49 234.82 568.63
  Q 235.44 568.94 234.87 569.34
  Z"
/>
<path fill="#e37910" d="
  M 364.79 572.44
  C 363.70 570.39 363.29 570.51 361.49 569.13
  Q 360.92 568.69 361.55 568.34
  Q 363.53 567.24 364.58 565.20
  A 0.50 0.50 0.0 0 1 365.35 565.05
  L 369.52 568.57
  A 0.41 0.40 55.4 0 1 369.40 569.26
  Q 366.91 570.14 365.66 572.44
  A 0.49 0.49 0.0 0 1 364.79 572.44
  Z"
/>
<path fill="#e37910" d="
  M 409.45 571.01
  C 412.43 568.74 413.94 569.12 415.46 565.15
  A 0.47 0.46 -50.3 0 1 416.29 565.07
  L 418.37 568.50
  A 0.92 0.88 87.6 0 0 418.68 568.80
  L 422.51 570.94
  A 0.42 0.42 0.0 0 1 422.45 571.70
  Q 417.84 573.33 416.46 578.09
  A 0.44 0.44 0.0 0 1 415.62 578.11
  Q 414.05 573.43 409.55 571.72
  Q 408.86 571.46 409.45 571.01
  Z"
/>
<path fill="#e37910" d="
  M 500.42 565.11
  C 501.58 566.71 501.65 567.32 503.54 568.47
  A 0.43 0.43 0.0 0 1 503.47 569.23
  Q 501.14 570.16 500.22 572.47
  A 0.42 0.41 41.9 0 1 499.47 572.51
  Q 498.38 570.46 496.22 569.51
  Q 495.42 569.16 496.04 568.55
  L 499.56 565.04
  Q 500.03 564.56 500.42 565.11
  Z"
/>
<path fill="#e37910" d="
  M 633.70 572.96
  C 632.27 571.10 632.22 570.64 630.13 569.35
  A 0.43 0.43 0.0 0 1 630.15 568.61
  Q 632.38 567.39 633.61 565.22
  Q 633.83 564.83 634.16 565.14
  L 637.92 568.68
  A 0.46 0.46 0.0 0 1 637.81 569.43
  Q 635.49 570.56 634.41 572.88
  Q 634.12 573.51 633.70 572.96
  Z"
/>
<path fill="#e37910" d="
  M 682.36 568.57
  L 684.20 565.02
  Q 684.71 564.04 685.27 564.99
  L 687.24 568.31
  Q 687.47 568.71 687.87 568.92
  L 691.57 570.93
  A 0.40 0.40 0.0 0 1 691.52 571.66
  Q 687.08 573.29 685.09 577.53
  A 0.44 0.44 0.0 0 1 684.27 577.48
  Q 682.81 573.21 678.53 571.73
  A 0.45 0.45 0.0 0 1 678.45 570.91
  L 682.17 568.77
  A 0.53 0.48 -88.1 0 0 682.36 568.57
  Z"
/>
<path fill="#e37910" d="
  M 745.43 571.03
  C 748.38 568.71 749.93 569.19 751.44 565.15
  A 0.48 0.47 -50.1 0 1 752.29 565.07
  L 754.18 568.20
  Q 754.46 568.67 754.94 568.94
  L 758.51 570.94
  A 0.42 0.42 0.0 0 1 758.44 571.70
  Q 753.84 573.33 752.46 578.09
  A 0.44 0.44 0.0 0 1 751.62 578.11
  Q 750.05 573.42 745.53 571.71
  Q 744.88 571.46 745.43 571.03
  Z"
/>
<path fill="#e37910" d="
  M 970.27 564.80
  Q 971.41 567.31 973.84 568.63
  A 0.41 0.41 0.0 0 1 973.83 569.35
  Q 971.49 570.52 970.42 572.89
  A 0.44 0.44 0.0 0 1 969.62 572.88
  Q 968.58 570.45 966.11 569.42
  A 0.44 0.44 0.0 0 1 966.08 568.62
  Q 968.59 567.32 969.86 564.79
  A 0.23 0.23 0.0 0 1 970.27 564.80
  Z"
/>
<rect fill="#e37910" x="-2.79" y="-2.83" transform="translate(1037.22,568.76) rotate(44.9)" width="5.58" height="5.66" rx="0.27"/>
<path fill="#e37910" d="
  M 94.03 570.08
  L 92.55 569.21
  Q 92.04 568.91 92.50 568.54
  L 96.27 565.46
  A 0.46 0.46 0.0 0 1 96.86 565.47
  L 100.50 568.63
  A 0.39 0.39 0.0 0 1 100.39 569.28
  Q 98.09 570.20 97.13 572.51
  A 0.63 0.63 0.0 0 1 96.03 572.62
  L 94.90 570.91
  Q 94.56 570.39 94.03 570.08
  Z"
/>
<path fill="#e37910" d="
  M 216.92 574.18
  L 215.16 577.50
  A 0.74 0.73 44.4 0 1 213.87 577.51
  L 211.79 573.73
  A 1.15 1.13 -7.9 0 0 211.02 573.16
  Q 209.16 572.78 207.85 571.38
  A 0.41 0.41 0.0 0 1 207.98 570.72
  L 211.20 569.25
  Q 211.72 569.02 212.02 568.54
  L 214.07 565.36
  A 0.56 0.56 0.0 0 1 215.05 565.42
  Q 216.77 569.16 220.50 570.89
  A 0.63 0.63 0.0 0 1 220.53 572.02
  L 217.52 573.59
  Q 217.13 573.79 216.92 574.18
  Z"
/>
<path fill="#e37910" d="
  M 766.47 570.36
  L 764.49 569.15
  A 0.36 0.36 0.0 0 1 764.45 568.56
  L 768.28 565.46
  A 0.45 0.45 0.0 0 1 768.86 565.47
  L 772.48 568.64
  A 0.38 0.38 0.0 0 1 772.37 569.28
  Q 770.09 570.21 769.12 572.51
  A 0.62 0.61 39.5 0 1 768.04 572.61
  L 766.70 570.59
  A 0.77 0.77 0.0 0 0 766.47 570.36
  Z"
/>
<path fill="#e37910" d="
  M 950.25 573.37
  L 947.42 572.17
  A 0.53 0.53 0.0 0 1 947.27 571.29
  C 949.60 569.14 951.25 568.96 952.68 565.68
  A 0.87 0.87 0.0 0 1 954.30 565.74
  Q 955.70 569.66 959.78 570.42
  A 0.43 0.43 0.0 0 1 960.06 571.09
  Q 958.88 572.82 956.78 573.29
  A 0.92 0.92 0.0 0 0 956.17 573.75
  L 954.22 577.33
  A 0.83 0.83 0.0 0 1 952.76 577.33
  L 950.99 574.03
  Q 950.74 573.57 950.25 573.37
  Z"
/>
</svg>
