<?xml version="1.0" encoding="UTF-8" standalone="no"?>
<!DOCTYPE svg PUBLIC "-//W3C//DTD SVG 1.1//EN" "http://www.w3.org/Graphics/SVG/1.1/DTD/svg11.dtd">
<svg xmlns="http://www.w3.org/2000/svg" version="1.1" viewBox="0.00 0.00 1080.00 707.00">
<g stroke-width="2.00" fill="none" stroke-linecap="butt">
<path stroke="#e08a21" vector-effect="non-scaling-stroke" d="
  M 238.06 220.68
  C 236.90 220.62 235.95 220.36 235.15 219.40
  Q 223.51 205.56 208.05 195.22
  C 194.02 185.84 170.74 181.30 157.15 194.34"
/>
<path stroke="#d36922" vector-effect="non-scaling-stroke" d="
  M 157.15 194.34
  Q 148.60 201.13 149.23 212.49
  Q 149.26 213.05 149.82 213.10
  L 151.34 213.26"
/>
<path stroke="#e08a21" vector-effect="non-scaling-stroke" d="
  M 244.20 488.46
  Q 227.65 497.10 212.50 500.53
  Q 188.07 506.06 161.27 502.50
  Q 123.73 497.52 96.83 471.17
  Q 76.59 451.36 63.41 423.84"
/>
<path stroke="#d36922" vector-effect="non-scaling-stroke" d="
  M 185.50 436.72
  Q 197.79 436.80 207.49 430.26"
/>
<path stroke="#e08a21" vector-effect="non-scaling-stroke" d="
  M 207.49 430.26
  Q 218.71 424.19 222.86 413.19
  C 230.30 393.50 216.32 374.75 201.87 362.61
  C 174.88 339.93 147.17 316.92 122.29 292.62
  C 100.78 271.63 81.37 245.20 80.89 213.76
  Q 80.30 175.07 108.77 147.60
  Q 109.13 147.25 108.91 146.80
  L 108.66 146.26"
/>
<path stroke="#d44237" vector-effect="non-scaling-stroke" d="
  M 236.25 222.12
  Q 236.23 221.06 235.92 220.77
  Q 235.61 220.48 235.00 221.10
  Q 232.12 224.01 228.41 226.63
  A 0.62 0.62 0.0 0 1 227.57 226.53
  Q 214.57 210.98 198.63 200.63
  Q 179.71 188.33 157.15 194.34"
/>
<path stroke="#d44237" vector-effect="non-scaling-stroke" d="
  M 71.02 469.02
  Q 71.14 468.94 71.30 468.93
  Q 71.67 468.90 71.91 469.18
  Q 94.89 496.08 129.54 504.00
  Q 130.35 504.19 130.94 504.12
  A 0.37 0.36 -39.5 0 0 131.01 503.41
  C 95.52 491.90 71.43 462.80 55.08 430.67
  Q 54.85 430.20 54.35 430.35
  Q 51.65 431.18 49.71 432.84
  Q 49.48 433.03 49.33 432.98
  Q 49.14 432.92 48.99 432.64"
/>
<path stroke="#d44237" vector-effect="non-scaling-stroke" d="
  M 207.49 430.26
  C 224.95 410.19 214.00 387.07 196.78 371.95
  Q 180.26 357.45 170.88 349.61
  Q 142.41 325.79 115.49 300.26
  Q 96.24 282.00 84.92 262.84
  Q 67.67 233.63 73.97 200.19
  A 0.39 0.39 0.0 0 0 73.24 199.95
  L 68.74 208.91"
/>
<path stroke="#556b94" vector-effect="non-scaling-stroke" d="
  M 621.05 465.90
  L 621.27 254.51
  Q 621.27 253.96 620.73 253.96
  L 583.98 254.02
  A 0.37 0.36 -90.0 0 0 583.62 254.39
  Q 583.87 357.01 583.64 458.00
  Q 583.63 462.70 583.03 465.76"
/>
<path stroke="#556b94" vector-effect="non-scaling-stroke" d="
  M 690.96 253.88
  L 653.49 253.94
  Q 652.93 253.94 652.93 254.50
  L 652.92 465.95"
/>
<path stroke="#556b94" vector-effect="non-scaling-stroke" d="
  M 359.51 256.00
  L 359.46 312.20
  A 0.81 0.81 0.0 0 0 360.28 313.02
  L 381.40 312.95
  A 0.82 0.82 0.0 0 1 382.22 313.78
  Q 382.05 328.61 382.20 343.68
  C 382.20 344.51 381.89 345.14 381.66 345.91"
/>
<path stroke="#556b94" vector-effect="non-scaling-stroke" d="
  M 380.82 345.84
  L 360.13 345.57
  A 0.95 0.94 -89.4 0 0 359.17 346.52
  L 359.19 465.98"
/>
<path stroke="#556b94" vector-effect="non-scaling-stroke" d="
  M 321.00 345.78
  L 302.71 345.60
  A 1.14 1.14 0.0 0 1 301.58 344.46
  L 301.56 313.70
  A 0.74 0.73 -0.0 0 1 302.30 312.97
  L 320.25 313.01
  A 1.10 0.89 -75.6 0 0 321.13 312.36
  Q 321.21 312.19 321.00 312.04"
/>
<path stroke="#556b94" vector-effect="non-scaling-stroke" d="
  M 479.19 308.87
  L 494.08 310.69"
/>
<path stroke="#556b94" vector-effect="non-scaling-stroke" d="
  M 494.88 310.83
  C 500.45 312.86 506.67 314.26 511.55 316.50
  C 537.92 328.65 553.59 354.42 555.67 383.05
  Q 555.71 383.53 556.00 383.90
  L 556.27 384.25"
/>
<path stroke="#556b94" vector-effect="non-scaling-stroke" d="
  M 556.45 385.95
  Q 555.75 386.04 555.85 387.04
  Q 556.57 394.12 555.89 399.69
  A 0.63 0.61 -86.3 0 1 555.28 400.24
  L 433.25 400.20
  A 0.89 0.79 -79.1 0 0 432.48 400.79
  Q 432.41 400.98 432.75 401.25
  Q 432.97 401.42 433.21 401.30"
/>
<path stroke="#556b94" vector-effect="non-scaling-stroke" d="
  M 433.30 402.91
  C 436.33 422.72 454.28 435.88 473.78 435.65"
/>
<path stroke="#556b94" vector-effect="non-scaling-stroke" d="
  M 479.10 435.56
  Q 489.12 436.11 498.00 432.13"
/>
<path stroke="#556b94" vector-effect="non-scaling-stroke" d="
  M 500.51 430.96
  Q 509.63 426.80 517.22 420.02
  A 1.59 1.59 0.0 0 1 519.29 419.98
  Q 531.87 430.42 544.89 441.22
  Q 545.14 441.43 545.23 441.64
  Q 545.36 441.97 545.29 442.21"
/>
<path stroke="#556b94" vector-effect="non-scaling-stroke" d="
  M 538.15 449.01
  Q 519.74 463.79 497.35 467.83
  Q 489.74 469.20 477.50 470.01"
/>
<path stroke="#556b94" vector-effect="non-scaling-stroke" d="
  M 474.45 469.97
  Q 470.12 469.38 465.77 468.97
  Q 441.44 466.67 421.91 451.34"
/>
<path stroke="#556b94" vector-effect="non-scaling-stroke" d="
  M 418.90 448.40
  C 400.92 429.57 393.66 405.69 395.95 379.99
  C 398.45 351.95 417.31 325.85 443.27 314.97
  Q 448.65 312.72 450.30 311.70"
/>
<path stroke="#556b94" vector-effect="non-scaling-stroke" d="
  M 451.72 311.44
  Q 453.39 312.14 455.03 311.09
  A 1.18 1.12 -65.0 0 1 455.46 310.92
  L 470.01 308.86"
/>
<path stroke="#556b94" vector-effect="non-scaling-stroke" d="
  M 794.05 308.56
  Q 780.16 309.11 771.75 311.25
  C 756.08 315.22 742.42 325.51 733.14 338.89
  Q 719.15 359.06 717.99 385.09"
/>
<path stroke="#556b94" vector-effect="non-scaling-stroke" d="
  M 797.12 308.89
  Q 818.30 312.06 834.21 325.76"
/>
<path stroke="#556b94" vector-effect="non-scaling-stroke" d="
  M 834.21 325.76
  L 837.20 328.63
  A 0.81 0.80 -68.8 0 0 838.56 328.03
  L 838.24 315.25"
/>
<path stroke="#556b94" vector-effect="non-scaling-stroke" d="
  M 838.28 313.31
  Q 838.47 313.15 838.68 313.03
  Q 838.89 312.90 839.16 312.90
  Q 857.49 313.03 875.98 312.99
  Q 876.51 312.99 876.51 313.52
  Q 876.25 389.17 876.42 464.74
  Q 876.86 465.26 876.02 465.98"
/>
<path stroke="#556b94" vector-effect="non-scaling-stroke" d="
  M 838.17 465.94
  Q 839.31 459.27 838.34 453.52
  Q 838.26 453.02 838.50 452.57
  Q 838.99 451.67 838.77 450.64
  A 0.87 0.86 61.8 0 0 837.32 450.20
  Q 819.02 468.20 794.06 470.06"
/>
<path stroke="#556b94" vector-effect="non-scaling-stroke" d="
  M 787.22 469.91
  Q 766.16 468.25 748.49 455.41"
/>
<path stroke="#556b94" vector-effect="non-scaling-stroke" d="
  M 742.40 450.32
  Q 719.93 426.53 717.92 393.50"
/>
<path stroke="#556b94" vector-effect="non-scaling-stroke" d="
  M 992.28 308.86
  Q 1007.74 310.30 1019.72 314.83
  C 1046.39 324.90 1064.04 349.97 1067.43 378.14
  Q 1067.48 378.54 1067.63 378.82
  Q 1067.99 379.50 1068.20 379.27"
/>
<path stroke="#556b94" vector-effect="non-scaling-stroke" d="
  M 1068.48 381.93
  Q 1068.41 381.86 1068.22 381.90
  A 0.16 0.16 0.0 0 0 1068.10 382.07
  L 1068.54 399.07
  A 1.12 1.12 0.0 0 1 1067.42 400.22
  L 945.77 400.22
  A 0.60 0.59 -70.8 0 0 945.30 400.45
  Q 945.06 400.75 945.18 400.94"
/>
<path stroke="#556b94" vector-effect="non-scaling-stroke" d="
  M 945.28 402.39
  Q 950.26 426.67 974.50 434.34
  Q 979.44 435.90 987.36 435.74"
/>
<path stroke="#556b94" vector-effect="non-scaling-stroke" d="
  M 990.95 435.69
  C 1005.72 436.14 1018.60 429.57 1029.46 420.07
  A 1.75 1.74 44.3 0 1 1031.73 420.05
  L 1056.97 441.04
  A 1.06 1.05 -47.8 0 1 1057.04 442.59
  Q 1037.15 462.81 1009.60 467.81
  Q 1000.85 469.40 989.51 469.97"
/>
<path stroke="#556b94" vector-effect="non-scaling-stroke" d="
  M 985.33 469.88
  Q 971.00 468.87 963.25 466.43
  Q 957.42 464.58 955.73 464.27"
/>
<path stroke="#556b94" vector-effect="non-scaling-stroke" d="
  M 952.77 462.94
  Q 942.28 457.28 937.40 453.61
  Q 932.28 449.75 925.24 441.84"
/>
<path stroke="#556b94" vector-effect="non-scaling-stroke" d="
  M 923.55 439.70
  C 916.40 429.26 911.48 417.97 909.32 405.60
  Q 908.60 401.53 907.82 397.38"
/>
<path stroke="#556b94" vector-effect="non-scaling-stroke" d="
  M 907.64 394.87
  L 907.57 384.11"
/>
<path stroke="#556b94" vector-effect="non-scaling-stroke" d="
  M 907.78 379.93
  Q 908.83 375.21 909.87 370.49
  Q 911.14 364.76 912.43 361.19
  Q 919.01 343.02 933.15 329.42"
/>
<path stroke="#556b94" vector-effect="non-scaling-stroke" d="
  M 936.65 326.10
  Q 947.70 318.03 960.32 312.98
  C 963.70 311.62 967.72 311.31 971.40 310.47
  C 975.19 309.61 979.10 309.70 983.01 308.85"
/>
<path stroke="#556b94" vector-effect="non-scaling-stroke" d="
  M 517.11 369.67
  Q 517.24 369.70 517.45 369.44
  Q 517.71 369.11 517.57 368.71
  Q 510.34 349.23 490.27 343.20
  Q 489.80 343.06 489.23 343.28"
/>
<path stroke="#556b94" vector-effect="non-scaling-stroke" d="
  M 489.23 343.28
  Q 487.62 342.30 484.49 341.85
  C 462.79 338.76 443.37 346.89 435.09 368.18"
/>
<path stroke="#556b94" vector-effect="non-scaling-stroke" d="
  M 1029.41 368.54
  Q 1029.17 366.21 1027.80 364.39"
/>
<path stroke="#556b94" vector-effect="non-scaling-stroke" d="
  M 1027.20 363.05
  Q 1025.39 358.29 1021.53 355.08"
/>
<path stroke="#556b94" vector-effect="non-scaling-stroke" d="
  M 1019.84 353.48
  Q 1015.49 348.49 1009.33 345.76
  Q 996.74 340.17 983.51 341.34
  C 971.32 342.41 961.00 347.66 953.44 357.17
  Q 949.27 362.41 947.24 368.85"
/>
<path stroke="#556b94" vector-effect="non-scaling-stroke" d="
  M 792.17 344.37
  Q 777.76 345.56 767.75 357.01
  Q 760.06 365.81 757.29 378.76
  Q 756.89 380.65 757.51 381.14"
/>
<path stroke="#556b94" vector-effect="non-scaling-stroke" d="
  M 757.11 382.88
  Q 753.89 405.20 767.75 421.27"
/>
<path stroke="#556b94" vector-effect="non-scaling-stroke" d="
  M 772.11 425.56
  Q 781.60 434.21 794.49 434.93
  Q 820.86 436.40 834.05 414.06
  Q 839.98 404.03 839.66 391.20"
/>
<path stroke="#556b94" vector-effect="non-scaling-stroke" d="
  M 839.53 385.65
  Q 839.78 372.82 832.71 362.73"
/>
<path stroke="#556b94" vector-effect="non-scaling-stroke" d="
  M 822.57 351.76
  Q 814.82 345.30 804.64 344.43"
/>
</g>
<path fill="#dfb10b" d="
  M 238.06 220.68
  C 236.90 220.62 235.95 220.36 235.15 219.40
  Q 223.51 205.56 208.05 195.22
  C 194.02 185.84 170.74 181.30 157.15 194.34
  Q 148.60 201.13 149.23 212.49
  Q 149.26 213.05 149.82 213.10
  L 151.34 213.26
  Q 148.44 216.31 151.51 222.27
  Q 154.72 228.51 160.66 235.09
  Q 168.27 243.53 185.40 257.36
  C 210.53 277.64 236.13 297.36 258.91 320.33
  C 278.24 339.82 291.88 365.05 293.36 392.76
  C 294.80 419.67 287.79 444.92 270.65 465.94
  Q 259.91 479.12 244.20 488.46
  Q 227.65 497.10 212.50 500.53
  Q 188.07 506.06 161.27 502.50
  Q 123.73 497.52 96.83 471.17
  Q 76.59 451.36 63.41 423.84
  L 121.84 389.03
  Q 122.32 388.74 122.57 389.24
  Q 131.23 406.73 144.04 419.68
  Q 161.02 436.85 185.50 436.72
  Q 197.79 436.80 207.49 430.26
  Q 218.71 424.19 222.86 413.19
  C 230.30 393.50 216.32 374.75 201.87 362.61
  C 174.88 339.93 147.17 316.92 122.29 292.62
  C 100.78 271.63 81.37 245.20 80.89 213.76
  Q 80.30 175.07 108.77 147.60
  Q 109.13 147.25 108.91 146.80
  L 108.66 146.26
  C 123.20 134.49 140.66 124.82 159.10 121.37
  Q 176.46 118.13 194.24 119.85
  C 213.48 121.71 229.80 128.37 245.67 139.39
  Q 269.09 155.66 286.96 177.84
  A 0.57 0.56 50.6 0 1 286.89 178.62
  L 238.06 220.68
  Z"
/>
<path fill="#e06236" d="
  M 108.66 146.26
  L 108.91 146.80
  Q 109.13 147.25 108.77 147.60
  Q 80.30 175.07 80.89 213.76
  C 81.37 245.20 100.78 271.63 122.29 292.62
  C 147.17 316.92 174.88 339.93 201.87 362.61
  C 216.32 374.75 230.30 393.50 222.86 413.19
  Q 218.71 424.19 207.49 430.26
  C 224.95 410.19 214.00 387.07 196.78 371.95
  Q 180.26 357.45 170.88 349.61
  Q 142.41 325.79 115.49 300.26
  Q 96.24 282.00 84.92 262.84
  Q 67.67 233.63 73.97 200.19
  A 0.39 0.39 0.0 0 0 73.24 199.95
  L 68.74 208.91
  C 70.99 202.74 73.76 197.19 75.93 190.86
  Q 85.32 163.45 108.66 146.26
  Z"
/>
<path fill="#e06236" d="
  M 238.06 220.68
  L 236.25 222.12
  Q 236.23 221.06 235.92 220.77
  Q 235.61 220.48 235.00 221.10
  Q 232.12 224.01 228.41 226.63
  A 0.62 0.62 0.0 0 1 227.57 226.53
  Q 214.57 210.98 198.63 200.63
  Q 179.71 188.33 157.15 194.34
  C 170.74 181.30 194.02 185.84 208.05 195.22
  Q 223.51 205.56 235.15 219.40
  C 235.95 220.36 236.90 220.62 238.06 220.68
  Z"
/>
<path fill="#c72138" d="
  M 236.25 222.12
  L 209.52 244.80
  Q 208.82 245.39 208.18 244.73
  C 192.58 228.52 175.86 211.38 151.34 213.26
  L 149.82 213.10
  Q 149.26 213.05 149.23 212.49
  Q 148.60 201.13 157.15 194.34
  Q 179.71 188.33 198.63 200.63
  Q 214.57 210.98 227.57 226.53
  A 0.62 0.62 0.0 0 0 228.41 226.63
  Q 232.12 224.01 235.00 221.10
  Q 235.61 220.48 235.92 220.77
  Q 236.23 221.06 236.25 222.12
  Z"
/>
<path fill="#c72138" d="
  M 207.49 430.26
  Q 197.79 436.80 185.50 436.72
  C 200.77 423.67 200.53 404.83 188.47 389.26
  Q 183.51 382.85 170.97 372.30
  Q 142.11 348.02 114.08 322.78
  C 101.40 311.37 90.95 300.32 81.51 287.22
  C 75.72 279.18 70.34 269.63 67.49 260.31
  C 62.52 244.12 62.02 224.62 68.74 208.91
  L 73.24 199.95
  A 0.39 0.39 0.0 0 1 73.97 200.19
  Q 67.67 233.63 84.92 262.84
  Q 96.24 282.00 115.49 300.26
  Q 142.41 325.79 170.88 349.61
  Q 180.26 357.45 196.78 371.95
  C 214.00 387.07 224.95 410.19 207.49 430.26
  Z"
/>
<path fill="#7a89ae" d="
  M 621.05 465.90
  L 621.27 254.51
  Q 621.27 253.96 620.73 253.96
  L 583.98 254.02
  A 0.37 0.36 -90.0 0 0 583.62 254.39
  Q 583.87 357.01 583.64 458.00
  Q 583.63 462.70 583.03 465.76
  L 583.03 253.50
  Q 583.03 253.00 583.53 253.00
  L 621.50 253.00
  Q 622.00 253.00 622.00 253.50
  L 622.00 465.50
  Q 622.00 465.95 621.54 465.97
  Q 621.24 465.99 621.05 465.90
  Z"
/>
<path fill="#7a89ae" d="
  M 690.96 253.88
  L 653.49 253.94
  Q 652.93 253.94 652.93 254.50
  L 652.92 465.95
  Q 652.69 466.05 652.47 466.01
  Q 652.00 465.92 652.00 465.44
  L 652.00 253.50
  Q 652.00 253.00 652.50 253.00
  L 690.46 253.00
  Q 690.83 253.00 690.92 253.36
  Q 691.00 253.71 690.96 253.88
  Z"
/>
<path fill="#304c7a" d="
  M 621.05 465.90
  L 583.03 465.76
  Q 583.63 462.70 583.64 458.00
  Q 583.87 357.01 583.62 254.39
  A 0.37 0.36 -90.0 0 1 583.98 254.02
  L 620.73 253.96
  Q 621.27 253.96 621.27 254.51
  L 621.05 465.90
  Z"
/>
<path fill="#304c7a" d="
  M 690.96 253.88
  L 690.94 465.38
  Q 690.94 465.94 690.38 465.94
  L 652.92 465.95
  L 652.93 254.50
  Q 652.93 253.94 653.49 253.94
  L 690.96 253.88
  Z"
/>
<path fill="#304c7a" d="
  M 359.51 256.00
  L 359.46 312.20
  A 0.81 0.81 0.0 0 0 360.28 313.02
  L 381.40 312.95
  A 0.82 0.82 0.0 0 1 382.22 313.78
  Q 382.05 328.61 382.20 343.68
  C 382.20 344.51 381.89 345.14 381.66 345.91
  Q 381.23 346.16 380.82 345.84
  L 360.13 345.57
  A 0.95 0.94 -89.4 0 0 359.17 346.52
  L 359.19 465.98
  L 321.57 465.98
  A 0.57 0.56 0.0 0 1 321.00 465.42
  L 321.00 345.78
  L 302.71 345.60
  A 1.14 1.14 0.0 0 1 301.58 344.46
  L 301.56 313.70
  A 0.74 0.73 -0.0 0 1 302.30 312.97
  L 320.25 313.01
  A 1.10 0.89 -75.6 0 0 321.13 312.36
  Q 321.21 312.19 321.00 312.04
  L 321.01 256.79
  Q 321.01 256.02 321.78 256.02
  L 359.51 256.00
  Z"
/>
<path fill="#7a89ae" d="
  M 359.51 256.00
  L 359.91 311.42
  Q 359.92 312.00 360.50 312.00
  L 381.25 312.00
  A 1.75 1.75 0.0 0 1 383.00 313.75
  L 383.00 345.48
  Q 383.00 345.93 382.55 345.99
  Q 382.07 346.05 381.66 345.91
  C 381.89 345.14 382.20 344.51 382.20 343.68
  Q 382.05 328.61 382.22 313.78
  A 0.82 0.82 0.0 0 0 381.40 312.95
  L 360.28 313.02
  A 0.81 0.81 0.0 0 1 359.46 312.20
  L 359.51 256.00
  Z"
/>
<path fill="#304c7a" d="
  M 479.19 308.87
  L 494.08 310.69
  Q 494.20 310.23 494.88 310.83
  C 500.45 312.86 506.67 314.26 511.55 316.50
  C 537.92 328.65 553.59 354.42 555.67 383.05
  Q 555.71 383.53 556.00 383.90
  L 556.27 384.25
  Q 556.61 384.58 556.45 385.95
  Q 555.75 386.04 555.85 387.04
  Q 556.57 394.12 555.89 399.69
  A 0.63 0.61 -86.3 0 1 555.28 400.24
  L 433.25 400.20
  A 0.89 0.79 -79.1 0 0 432.48 400.79
  Q 432.41 400.98 432.75 401.25
  Q 432.97 401.42 433.21 401.30
  Q 432.49 401.63 433.30 402.91
  C 436.33 422.72 454.28 435.88 473.78 435.65
  L 479.10 435.56
  Q 489.12 436.11 498.00 432.13
  Q 499.01 431.14 500.51 430.96
  Q 509.63 426.80 517.22 420.02
  A 1.59 1.59 0.0 0 1 519.29 419.98
  Q 531.87 430.42 544.89 441.22
  Q 545.14 441.43 545.23 441.64
  Q 545.36 441.97 545.29 442.21
  L 538.15 449.01
  Q 519.74 463.79 497.35 467.83
  Q 489.74 469.20 477.50 470.01
  L 474.45 469.97
  Q 470.12 469.38 465.77 468.97
  Q 441.44 466.67 421.91 451.34
  Q 419.98 450.17 418.90 448.40
  C 400.92 429.57 393.66 405.69 395.95 379.99
  C 398.45 351.95 417.31 325.85 443.27 314.97
  Q 448.65 312.72 450.30 311.70
  L 451.72 311.44
  Q 453.39 312.14 455.03 311.09
  A 1.18 1.12 -65.0 0 1 455.46 310.92
  L 470.01 308.86
  Q 474.77 307.89 479.19 308.87
  Z
  M 435.09 368.18
  L 435.00 368.90
  Q 434.85 370.00 435.96 370.00
  L 516.15 370.01
  Q 516.40 370.01 516.62 369.90
  L 517.11 369.67
  Q 517.24 369.70 517.45 369.44
  Q 517.71 369.11 517.57 368.71
  Q 510.34 349.23 490.27 343.20
  Q 489.80 343.06 489.23 343.28
  Q 487.62 342.30 484.49 341.85
  C 462.79 338.76 443.37 346.89 435.09 368.18
  Z"
/>
<path fill="#7a89ae" d="
  M 794.05 308.56
  Q 780.16 309.11 771.75 311.25
  C 756.08 315.22 742.42 325.51 733.14 338.89
  Q 719.15 359.06 717.99 385.09
  Q 718.33 353.87 738.32 331.31
  Q 759.64 307.24 794.05 308.56
  Z"
/>
<path fill="#304c7a" d="
  M 992.28 308.86
  Q 1007.74 310.30 1019.72 314.83
  C 1046.39 324.90 1064.04 349.97 1067.43 378.14
  Q 1067.48 378.54 1067.63 378.82
  Q 1067.99 379.50 1068.20 379.27
  L 1068.48 381.93
  Q 1068.41 381.86 1068.22 381.90
  A 0.16 0.16 0.0 0 0 1068.10 382.07
  L 1068.54 399.07
  A 1.12 1.12 0.0 0 1 1067.42 400.22
  L 945.77 400.22
  A 0.60 0.59 -70.8 0 0 945.30 400.45
  Q 945.06 400.75 945.18 400.94
  L 945.28 402.39
  Q 950.26 426.67 974.50 434.34
  Q 979.44 435.90 987.36 435.74
  L 990.95 435.69
  C 1005.72 436.14 1018.60 429.57 1029.46 420.07
  A 1.75 1.74 44.3 0 1 1031.73 420.05
  L 1056.97 441.04
  A 1.06 1.05 -47.8 0 1 1057.04 442.59
  Q 1037.15 462.81 1009.60 467.81
  Q 1000.85 469.40 989.51 469.97
  L 985.33 469.88
  Q 971.00 468.87 963.25 466.43
  Q 957.42 464.58 955.73 464.27
  L 952.77 462.94
  Q 942.28 457.28 937.40 453.61
  Q 932.28 449.75 925.24 441.84
  Q 923.99 441.06 923.55 439.70
  C 916.40 429.26 911.48 417.97 909.32 405.60
  Q 908.60 401.53 907.82 397.38
  Q 907.26 396.11 907.64 394.87
  L 907.57 384.11
  L 907.78 379.93
  Q 908.83 375.21 909.87 370.49
  Q 911.14 364.76 912.43 361.19
  Q 919.01 343.02 933.15 329.42
  Q 934.20 327.37 936.65 326.10
  Q 947.70 318.03 960.32 312.98
  C 963.70 311.62 967.72 311.31 971.40 310.47
  C 975.19 309.61 979.10 309.70 983.01 308.85
  Q 987.36 307.92 992.28 308.86
  Z
  M 947.24 368.85
  L 947.35 369.47
  Q 947.44 370.00 947.98 370.00
  L 1029.29 370.01
  Q 1029.87 370.01 1029.70 369.45
  L 1029.41 368.54
  Q 1029.17 366.21 1027.80 364.39
  Q 1027.19 363.89 1027.20 363.05
  Q 1025.39 358.29 1021.53 355.08
  Q 1020.49 354.56 1019.84 353.48
  Q 1015.49 348.49 1009.33 345.76
  Q 996.74 340.17 983.51 341.34
  C 971.32 342.41 961.00 347.66 953.44 357.17
  Q 949.27 362.41 947.24 368.85
  Z"
/>
<path fill="#304c7a" d="
  M 794.05 308.56
  L 797.12 308.89
  Q 818.30 312.06 834.21 325.76
  L 837.20 328.63
  A 0.81 0.80 -68.8 0 0 838.56 328.03
  L 838.24 315.25
  Q 837.97 314.34 838.28 313.31
  Q 838.47 313.15 838.68 313.03
  Q 838.89 312.90 839.16 312.90
  Q 857.49 313.03 875.98 312.99
  Q 876.51 312.99 876.51 313.52
  Q 876.25 389.17 876.42 464.74
  Q 876.86 465.26 876.02 465.98
  L 838.17 465.94
  Q 839.31 459.27 838.34 453.52
  Q 838.26 453.02 838.50 452.57
  Q 838.99 451.67 838.77 450.64
  A 0.87 0.86 61.8 0 0 837.32 450.20
  Q 819.02 468.20 794.06 470.06
  L 787.22 469.91
  Q 766.16 468.25 748.49 455.41
  L 742.40 450.32
  Q 719.93 426.53 717.92 393.50
  L 717.99 385.09
  Q 719.15 359.06 733.14 338.89
  C 742.42 325.51 756.08 315.22 771.75 311.25
  Q 780.16 309.11 794.05 308.56
  Z
  M 792.17 344.37
  Q 777.76 345.56 767.75 357.01
  Q 760.06 365.81 757.29 378.76
  Q 756.89 380.65 757.51 381.14
  L 757.11 382.88
  Q 753.89 405.20 767.75 421.27
  L 772.11 425.56
  Q 781.60 434.21 794.49 434.93
  Q 820.86 436.40 834.05 414.06
  Q 839.98 404.03 839.66 391.20
  L 839.53 385.65
  Q 839.78 372.82 832.71 362.73
  Q 828.20 356.17 822.57 351.76
  Q 814.82 345.30 804.64 344.43
  L 792.17 344.37
  Z"
/>
<path fill="#7a89ae" d="
  M 470.01 308.86
  L 455.46 310.92
  A 1.18 1.12 -65.0 0 0 455.03 311.09
  Q 453.39 312.14 451.72 311.44
  Q 460.77 308.89 470.01 308.86
  Z"
/>
<path fill="#7a89ae" d="
  M 479.19 308.87
  Q 486.79 308.48 494.08 310.69
  L 479.19 308.87
  Z"
/>
<path fill="#7a89ae" d="
  M 797.12 308.89
  Q 818.86 310.90 834.21 325.76
  Q 818.30 312.06 797.12 308.89
  Z"
/>
<path fill="#7a89ae" d="
  M 983.01 308.85
  C 979.10 309.70 975.19 309.61 971.40 310.47
  C 967.72 311.31 963.70 311.62 960.32 312.98
  Q 947.70 318.03 936.65 326.10
  Q 956.38 308.99 983.01 308.85
  Z"
/>
<path fill="#7a89ae" d="
  M 992.28 308.86
  Q 1008.18 309.29 1022.06 315.22
  C 1048.61 326.55 1064.89 350.98 1068.20 379.27
  Q 1067.99 379.50 1067.63 378.82
  Q 1067.48 378.54 1067.43 378.14
  C 1064.04 349.97 1046.39 324.90 1019.72 314.83
  Q 1007.74 310.30 992.28 308.86
  Z"
/>
<path fill="#7a89ae" d="
  M 494.88 310.83
  Q 507.54 313.48 513.69 316.83
  Q 552.89 338.19 556.27 384.25
  L 556.00 383.90
  Q 555.71 383.53 555.67 383.05
  C 553.59 354.42 537.92 328.65 511.55 316.50
  C 506.67 314.26 500.45 312.86 494.88 310.83
  Z"
/>
<path fill="#7a89ae" d="
  M 450.30 311.70
  Q 448.65 312.72 443.27 314.97
  C 417.31 325.85 398.45 351.95 395.95 379.99
  C 393.66 405.69 400.92 429.57 418.90 448.40
  Q 410.60 440.84 405.21 430.73
  C 393.80 409.34 391.36 383.47 399.90 360.47
  Q 413.35 324.24 450.30 311.70
  Z"
/>
<path fill="#7a89ae" d="
  M 321.00 312.04
  Q 321.21 312.19 321.13 312.36
  A 1.10 0.89 -75.6 0 1 320.25 313.01
  L 302.30 312.97
  A 0.74 0.73 0.0 0 0 301.56 313.70
  L 301.58 344.46
  A 1.14 1.14 0.0 0 0 302.71 345.60
  L 321.00 345.78
  L 301.63 345.90
  Q 301.00 345.90 301.00 345.27
  L 301.00 312.54
  Q 301.00 312.05 301.49 312.05
  L 321.00 312.04
  Z"
/>
<path fill="#7a89ae" d="
  M 876.02 465.98
  Q 876.86 465.26 876.42 464.74
  Q 876.25 389.17 876.51 313.52
  Q 876.51 312.99 875.98 312.99
  Q 857.49 313.03 839.16 312.90
  Q 838.89 312.90 838.68 313.03
  Q 838.47 313.15 838.28 313.31
  Q 838.12 312.94 838.26 312.48
  A 0.66 0.66 0.0 0 1 838.89 312.01
  L 876.60 311.99
  Q 877.00 311.99 877.00 312.39
  L 877.00 465.48
  A 0.44 0.43 -3.8 0 1 876.62 465.91
  L 876.02 465.98
  Z"
/>
<path fill="#7a89ae" d="
  M 838.24 315.25
  L 838.56 328.03
  A 0.81 0.80 -68.8 0 1 837.20 328.63
  L 834.21 325.76
  L 837.45 327.76
  Q 838.01 328.10 838.02 327.45
  L 838.24 315.25
  Z"
/>
<path fill="#7a89ae" d="
  M 933.15 329.42
  Q 919.01 343.02 912.43 361.19
  Q 911.14 364.76 909.87 370.49
  Q 908.83 375.21 907.78 379.93
  Q 910.89 352.20 929.96 331.71
  Q 931.35 330.21 933.15 329.42
  Z"
/>
<path fill="#7a89ae" d="
  M 489.23 343.28
  C 478.28 340.97 465.97 341.25 455.88 345.85
  C 445.65 350.50 441.11 357.53 435.09 368.18
  C 443.37 346.89 462.79 338.76 484.49 341.85
  Q 487.62 342.30 489.23 343.28
  Z"
/>
<path fill="#7a89ae" d="
  M 1019.84 353.48
  Q 1010.33 344.76 998.27 342.74
  C 979.02 339.53 960.20 344.61 950.60 362.93
  Q 949.05 365.88 947.24 368.85
  Q 949.27 362.41 953.44 357.17
  C 961.00 347.66 971.32 342.41 983.51 341.34
  Q 996.74 340.17 1009.33 345.76
  Q 1015.49 348.49 1019.84 353.48
  Z"
/>
<path fill="#7a89ae" d="
  M 489.23 343.28
  Q 489.80 343.06 490.27 343.20
  Q 510.34 349.23 517.57 368.71
  Q 517.71 369.11 517.45 369.44
  Q 517.24 369.70 517.11 369.67
  C 513.39 356.43 502.35 346.98 489.23 343.28
  Z"
/>
<path fill="#7a89ae" d="
  M 792.17 344.37
  Q 781.61 345.97 773.56 352.32
  Q 759.81 363.18 757.51 381.14
  Q 756.89 380.65 757.29 378.76
  Q 760.06 365.81 767.75 357.01
  Q 777.76 345.56 792.17 344.37
  Z"
/>
<path fill="#7a89ae" d="
  M 822.57 351.76
  Q 814.32 346.34 804.64 344.43
  Q 814.82 345.30 822.57 351.76
  Z"
/>
<path fill="#7a89ae" d="
  M 380.82 345.84
  L 360.51 345.99
  Q 360.00 345.99 360.00 346.50
  L 360.00 465.52
  Q 360.00 465.97 359.56 466.00
  Q 359.36 466.01 359.19 465.98
  L 359.17 346.52
  A 0.95 0.94 -89.4 0 1 360.13 345.57
  L 380.82 345.84
  Z"
/>
<path fill="#7a89ae" d="
  M 1027.20 363.05
  L 1021.53 355.08
  Q 1025.39 358.29 1027.20 363.05
  Z"
/>
<path fill="#7a89ae" d="
  M 832.71 362.73
  Q 839.78 372.82 839.53 385.65
  Q 838.51 373.17 832.71 362.73
  Z"
/>
<path fill="#7a89ae" d="
  M 1027.80 364.39
  Q 1029.17 366.21 1029.41 368.54
  Q 1028.03 366.72 1027.80 364.39
  Z"
/>
<path fill="#7a89ae" d="
  M 1068.48 381.93
  Q 1069.56 391.21 1068.83 400.35
  Q 1068.78 400.94 1068.19 400.94
  L 945.18 400.94
  Q 945.06 400.75 945.30 400.45
  A 0.60 0.59 -70.8 0 1 945.77 400.22
  L 1067.42 400.22
  A 1.12 1.12 0.0 0 0 1068.54 399.07
  L 1068.10 382.07
  A 0.16 0.16 0.0 0 1 1068.22 381.90
  Q 1068.41 381.86 1068.48 381.93
  Z"
/>
<path fill="#7a89ae" d="
  M 757.11 382.88
  Q 755.07 404.70 767.75 421.27
  Q 753.89 405.20 757.11 382.88
  Z"
/>
<path fill="#7a89ae" d="
  M 907.57 384.11
  L 907.64 394.87
  Q 906.56 389.58 907.57 384.11
  Z"
/>
<path fill="#7a89ae" d="
  M 556.45 385.95
  Q 557.40 392.95 556.89 399.19
  A 1.93 1.93 0.0 0 1 554.97 400.96
  L 433.21 401.30
  Q 432.97 401.42 432.75 401.25
  Q 432.41 400.98 432.48 400.79
  A 0.89 0.79 -79.1 0 1 433.25 400.20
  L 555.28 400.24
  A 0.63 0.61 -86.3 0 0 555.89 399.69
  Q 556.57 394.12 555.85 387.04
  Q 555.75 386.04 556.45 385.95
  Z"
/>
<path fill="#7a89ae" d="
  M 839.66 391.20
  Q 839.98 404.03 834.05 414.06
  Q 820.86 436.40 794.49 434.93
  Q 781.60 434.21 772.11 425.56
  C 786.18 436.79 808.38 437.53 822.85 426.29
  Q 835.85 416.19 838.36 398.83
  Q 838.92 394.98 839.66 391.20
  Z"
/>
<path fill="#7a89ae" d="
  M 717.92 393.50
  Q 719.93 426.53 742.40 450.32
  Q 718.61 427.10 717.92 393.50
  Z"
/>
<path fill="#7a89ae" d="
  M 907.82 397.38
  Q 908.60 401.53 909.32 405.60
  C 911.48 417.97 916.40 429.26 923.55 439.70
  Q 909.18 421.17 907.82 397.38
  Z"
/>
<path fill="#7a89ae" d="
  M 945.28 402.39
  Q 946.54 406.16 947.95 410.00
  Q 949.53 414.28 951.55 417.17
  C 958.39 426.94 969.19 434.08 981.43 434.81
  Q 984.44 434.99 987.36 435.74
  Q 979.44 435.90 974.50 434.34
  Q 950.26 426.67 945.28 402.39
  Z"
/>
<path fill="#7a89ae" d="
  M 433.30 402.91
  Q 438.66 424.58 458.25 432.41
  C 463.03 434.32 468.45 434.77 473.78 435.65
  C 454.28 435.88 436.33 422.72 433.30 402.91
  Z"
/>
<path fill="#7a89ae" d="
  M 989.51 469.97
  Q 1000.85 469.40 1009.60 467.81
  Q 1037.15 462.81 1057.04 442.59
  A 1.06 1.05 -47.8 0 0 1056.97 441.04
  L 1031.73 420.05
  A 1.75 1.74 44.3 0 0 1029.46 420.07
  C 1018.60 429.57 1005.72 436.14 990.95 435.69
  C 994.85 434.88 999.18 435.08 1002.66 434.16
  Q 1017.98 430.13 1029.34 419.19
  A 1.55 1.54 -47.0 0 1 1031.40 419.11
  L 1057.57 440.92
  Q 1058.46 441.66 1057.79 442.62
  Q 1056.96 443.80 1055.43 445.21
  Q 1027.72 470.75 989.51 469.97
  Z"
/>
<path fill="#7a89ae" d="
  M 545.29 442.21
  Q 545.36 441.97 545.23 441.64
  Q 545.14 441.43 544.89 441.22
  Q 531.87 430.42 519.29 419.98
  A 1.59 1.59 0.0 0 0 517.22 420.02
  Q 509.63 426.80 500.51 430.96
  Q 509.56 425.67 517.60 419.19
  Q 518.00 418.88 518.45 419.10
  Q 520.06 419.89 521.04 420.69
  Q 526.27 424.98 545.61 441.07
  A 0.60 0.59 37.1 0 1 545.73 441.86
  Q 545.59 442.07 545.29 442.21
  Z"
/>
<path fill="#e06236" d="
  M 63.41 423.84
  Q 76.59 451.36 96.83 471.17
  Q 123.73 497.52 161.27 502.50
  Q 188.07 506.06 212.50 500.53
  Q 227.65 497.10 244.20 488.46
  C 218.73 507.23 188.38 512.48 157.35 509.42
  Q 152.21 508.91 142.22 507.04
  C 135.50 505.78 128.33 504.84 122.20 502.96
  Q 91.86 493.66 71.02 469.02
  Q 71.14 468.94 71.30 468.93
  Q 71.67 468.90 71.91 469.18
  Q 94.89 496.08 129.54 504.00
  Q 130.35 504.19 130.94 504.12
  A 0.37 0.36 -39.5 0 0 131.01 503.41
  C 95.52 491.90 71.43 462.80 55.08 430.67
  Q 54.85 430.20 54.35 430.35
  Q 51.65 431.18 49.71 432.84
  Q 49.48 433.03 49.33 432.98
  Q 49.14 432.92 48.99 432.64
  L 63.41 423.84
  Z"
/>
<path fill="#c72138" d="
  M 71.02 469.02
  Q 57.54 453.07 48.06 434.26
  Q 47.83 433.79 48.20 433.42
  L 48.99 432.64
  Q 49.14 432.92 49.33 432.98
  Q 49.48 433.03 49.71 432.84
  Q 51.65 431.18 54.35 430.35
  Q 54.85 430.20 55.08 430.67
  C 71.43 462.80 95.52 491.90 131.01 503.41
  A 0.37 0.36 -39.5 0 1 130.94 504.12
  Q 130.35 504.19 129.54 504.00
  Q 94.89 496.08 71.91 469.18
  Q 71.67 468.90 71.30 468.93
  Q 71.14 468.94 71.02 469.02
  Z"
/>
<path fill="#7a89ae" d="
  M 498.00 432.13
  Q 489.12 436.11 479.10 435.56
  Q 488.94 434.78 498.00 432.13
  Z"
/>
<path fill="#7a89ae" d="
  M 952.77 462.94
  Q 935.84 456.33 925.24 441.84
  Q 932.28 449.75 937.40 453.61
  Q 942.28 457.28 952.77 462.94
  Z"
/>
<path fill="#7a89ae" d="
  M 538.15 449.01
  C 521.34 463.92 499.81 470.37 477.50 470.01
  Q 489.74 469.20 497.35 467.83
  Q 519.74 463.79 538.15 449.01
  Z"
/>
<path fill="#7a89ae" d="
  M 838.17 465.94
  L 838.07 451.48
  A 0.45 0.45 0.0 0 0 837.31 451.15
  C 825.15 462.44 811.01 469.97 794.06 470.06
  Q 819.02 468.20 837.32 450.20
  A 0.87 0.86 61.8 0 1 838.77 450.64
  Q 838.99 451.67 838.50 452.57
  Q 838.26 453.02 838.34 453.52
  Q 839.31 459.27 838.17 465.94
  Z"
/>
<path fill="#7a89ae" d="
  M 474.45 469.97
  C 455.77 470.64 435.87 463.79 421.91 451.34
  Q 441.44 466.67 465.77 468.97
  Q 470.12 469.38 474.45 469.97
  Z"
/>
<path fill="#7a89ae" d="
  M 748.49 455.41
  Q 766.16 468.25 787.22 469.91
  C 773.65 470.66 758.64 463.87 748.49 455.41
  Z"
/>
<path fill="#7a89ae" d="
  M 955.73 464.27
  Q 957.42 464.58 963.25 466.43
  Q 971.00 468.87 985.33 469.88
  Q 969.93 470.28 955.73 464.27
  Z"
/>
<path fill="#e97c0d" d="
  M 275.28 527.68
  L 272.43 526.14
  A 0.68 0.68 0.0 0 1 272.45 524.93
  Q 275.40 523.45 276.37 520.20
  A 0.68 0.67 -39.2 0 1 277.69 520.33
  Q 277.98 523.75 281.26 524.66
  A 0.89 0.88 43.4 0 1 281.31 526.35
  Q 278.17 527.42 277.19 530.59
  A 0.52 0.52 0.0 0 1 276.18 530.51
  L 275.91 528.59
  A 1.25 1.25 0.0 0 0 275.28 527.68
  Z"
/>
<path fill="#e97c0d" d="
  M 350.34 527.82
  L 347.19 525.92
  A 0.51 0.50 47.8 0 1 347.23 525.03
  Q 350.33 523.60 351.32 520.26
  A 0.73 0.72 -44.0 0 1 352.72 520.28
  L 353.32 522.67
  A 0.98 0.97 10.3 0 0 353.72 523.24
  L 356.70 525.19
  A 0.54 0.54 0.0 0 1 356.65 526.12
  L 354.15 527.41
  A 1.60 1.55 0.9 0 0 353.51 528.01
  L 351.98 530.66
  A 0.40 0.39 -34.7 0 1 351.25 530.53
  L 350.91 528.65
  A 1.22 1.19 11.4 0 0 350.34 527.82
  Z"
/>
<path fill="#e97c0d" d="
  M 365.29 520.32
  A 0.79 0.79 0.0 0 1 366.83 520.51
  Q 367.00 523.82 370.22 524.65
  A 0.82 0.82 0.0 0 1 370.46 526.13
  L 366.26 528.83
  Q 365.68 529.20 365.20 528.71
  L 362.06 525.54
  Q 361.55 525.03 362.15 524.62
  Q 364.45 523.02 365.29 520.32
  Z"
/>
<path fill="#e97c0d" d="
  M 428.52 528.02
  L 427.32 530.00
  A 0.43 0.43 0.0 0 1 426.55 529.94
  Q 425.49 527.22 422.67 526.37
  A 0.87 0.86 44.4 0 1 422.65 524.72
  C 425.29 523.88 425.14 521.78 426.71 520.00
  A 0.52 0.52 0.0 0 1 427.59 520.19
  Q 428.65 523.51 431.69 525.07
  A 0.58 0.58 0.0 0 1 431.70 526.09
  L 429.15 527.43
  A 1.63 1.58 0.9 0 0 428.52 528.02
  Z"
/>
<path fill="#e97c0d" d="
  M 443.26 523.70
  L 445.63 524.86
  A 0.64 0.63 -48.3 0 1 445.69 525.96
  L 441.32 528.83
  A 0.80 0.79 -39.6 0 1 440.32 528.74
  L 437.04 525.63
  A 0.62 0.62 0.0 0 1 437.10 524.68
  Q 439.42 523.00 440.37 520.24
  A 0.58 0.58 0.0 0 1 441.46 520.21
  L 442.52 522.90
  Q 442.73 523.45 443.26 523.70
  Z"
/>
<path fill="#e97c0d" d="
  M 504.52 523.72
  L 506.42 524.97
  A 0.87 0.87 0.0 0 1 506.10 526.55
  Q 502.62 527.21 502.70 530.82
  A 0.34 0.34 0.0 0 1 502.03 530.93
  Q 500.98 527.55 497.65 526.37
  A 0.94 0.94 0.0 0 1 497.73 524.58
  Q 501.09 523.70 501.30 520.30
  A 0.65 0.65 0.0 0 1 502.52 520.05
  L 504.20 523.35
  A 0.93 0.91 -86.4 0 0 504.52 523.72
  Z"
/>
<path fill="#e97c0d" d="
  M 515.35 520.17
  A 0.60 0.59 39.0 0 1 516.50 520.05
  Q 517.68 523.33 520.58 525.16
  A 0.53 0.53 0.0 0 1 520.59 526.06
  L 516.30 528.78
  Q 515.74 529.13 515.25 528.68
  L 512.27 525.90
  A 0.57 0.56 -40.2 0 1 512.35 525.01
  Q 514.95 523.31 515.35 520.17
  Z"
/>
<path fill="#e97c0d" d="
  M 574.73 527.34
  L 572.45 526.15
  A 0.84 0.84 0.0 0 1 572.67 524.58
  Q 576.14 523.88 576.27 520.35
  A 0.68 0.68 0.0 0 1 577.60 520.17
  Q 578.64 523.39 581.54 525.04
  A 0.76 0.75 -35.3 0 1 581.30 526.44
  Q 577.90 527.06 577.83 530.50
  A 0.46 0.46 0.0 0 1 576.97 530.72
  L 575.44 528.03
  Q 575.18 527.58 574.73 527.34
  Z"
/>
<path fill="#e97c0d" d="
  M 587.30 525.02
  C 589.44 523.51 589.94 522.48 590.30 520.28
  A 0.67 0.67 0.0 0 1 591.60 520.20
  Q 592.61 523.44 595.56 524.95
  A 0.66 0.65 42.6 0 1 595.61 526.09
  L 591.23 528.82
  A 0.78 0.77 50.7 0 1 590.28 528.72
  L 587.25 525.85
  A 0.55 0.54 48.7 0 1 587.30 525.02
  Z"
/>
<path fill="#e97c0d" d="
  M 49.63 527.55
  L 47.26 525.89
  A 0.53 0.53 0.0 0 1 47.34 524.98
  Q 50.34 523.58 51.26 520.36
  A 0.47 0.47 0.0 0 1 52.16 520.33
  Q 53.24 523.53 56.34 524.90
  A 0.79 0.79 0.0 0 1 56.28 526.38
  Q 53.11 527.45 52.14 530.66
  A 0.38 0.38 0.0 0 1 51.44 530.73
  L 49.87 527.82
  A 0.77 0.65 8.2 0 0 49.63 527.55
  Z"
/>
<path fill="#e97c0d" d="
  M 65.03 520.77
  A 0.68 0.68 0.0 0 1 66.31 520.72
  Q 67.43 523.70 70.43 524.84
  A 0.72 0.71 39.7 0 1 70.55 526.12
  L 65.74 529.09
  A 0.71 0.71 0.0 0 1 64.86 528.99
  L 62.29 526.45
  A 1.33 1.32 49.5 0 1 62.44 524.43
  Q 64.34 523.06 65.03 520.77
  Z"
/>
<path fill="#e97c0d" d="
  M 128.36 528.24
  L 127.05 530.75
  A 0.42 0.41 -38.7 0 1 126.28 530.67
  Q 125.41 527.35 122.29 526.05
  A 0.57 0.57 0.0 0 1 122.28 525.00
  Q 125.29 523.67 126.20 520.46
  A 0.50 0.50 0.0 0 1 127.15 520.42
  Q 128.31 523.67 131.54 524.91
  A 0.70 0.69 41.5 0 1 131.62 526.17
  L 129.14 527.46
  Q 128.63 527.73 128.36 528.24
  Z"
/>
<path fill="#e97c0d" d="
  M 202.15 530.61
  A 0.43 0.43 0.0 0 1 201.33 530.62
  Q 200.26 527.47 197.30 525.96
  A 0.53 0.53 0.0 0 1 197.32 525.00
  Q 200.33 523.60 201.25 520.34
  A 0.48 0.48 0.0 0 1 202.17 520.33
  Q 203.19 523.56 206.33 524.84
  A 0.81 0.81 0.0 0 1 206.29 526.35
  Q 203.14 527.43 202.15 530.61
  Z"
/>
<path fill="#e97c0d" d="
  M 215.22 520.45
  A 0.48 0.48 0.0 0 1 216.13 520.43
  Q 217.34 523.57 220.46 524.90
  A 0.69 0.69 0.0 0 1 220.55 526.13
  L 215.88 528.99
  A 0.91 0.90 -39.0 0 1 214.79 528.88
  L 212.20 526.41
  A 1.21 1.21 0.0 0 1 212.29 524.56
  Q 214.38 522.96 215.22 520.45
  Z"
/>
<path fill="#e97c0d" d="
  M 288.82 523.19
  L 290.39 520.37
  A 0.42 0.42 0.0 0 1 291.16 520.43
  Q 292.28 523.67 295.51 524.83
  A 0.68 0.68 0.0 0 1 295.64 526.05
  L 291.26 528.79
  Q 290.72 529.13 290.26 528.69
  L 286.97 525.58
  A 0.64 0.64 0.0 0 1 287.08 524.56
  L 288.06 523.98
  Q 288.55 523.69 288.82 523.19
  Z"
/>
<path fill="#e97c0d" d="
  M 654.09 527.81
  L 652.63 530.57
  Q 652.28 531.23 651.92 530.58
  L 650.76 528.46
  Q 650.54 528.07 650.16 527.82
  L 647.25 525.90
  A 0.57 0.56 51.4 0 1 647.36 524.90
  Q 650.61 523.66 651.86 520.44
  A 0.47 0.47 0.0 0 1 652.75 520.47
  Q 653.72 523.56 656.52 525.07
  A 0.61 0.61 0.0 0 1 656.54 526.14
  L 654.65 527.23
  A 1.44 1.38 -2.2 0 0 654.09 527.81
  Z"
/>
<path fill="#e97c0d" d="
  M 725.15 527.64
  L 722.20 525.95
  A 0.59 0.59 0.0 0 1 722.31 524.87
  Q 725.67 523.78 726.83 520.44
  A 0.48 0.48 0.0 0 1 727.74 520.44
  Q 728.76 523.59 731.62 525.12
  A 0.56 0.56 0.0 0 1 731.57 526.13
  Q 728.62 527.36 727.80 530.52
  A 0.52 0.51 -52.0 0 1 726.85 530.64
  L 725.39 527.88
  A 0.64 0.56 4.1 0 0 725.15 527.64
  Z"
/>
<path fill="#e97c0d" d="
  M 804.05 527.86
  L 802.60 530.57
  Q 802.25 531.22 801.91 530.57
  L 800.66 528.21
  A 0.42 0.41 5.0 0 0 800.50 528.02
  L 797.23 525.91
  A 0.57 0.56 -39.0 0 1 797.34 524.91
  Q 800.64 523.65 801.90 520.37
  A 0.45 0.45 0.0 0 1 802.75 520.41
  Q 803.65 523.59 806.55 525.06
  A 0.61 0.61 0.0 0 1 806.57 526.14
  L 804.74 527.16
  Q 804.29 527.40 804.05 527.86
  Z"
/>
<path fill="#e97c0d" d="
  M 878.06 530.04
  A 0.78 0.78 0.0 0 1 876.57 530.12
  Q 875.47 527.21 872.53 526.24
  A 0.78 0.78 0.0 0 1 872.52 524.76
  Q 875.76 523.64 876.84 520.37
  A 0.45 0.45 0.0 0 1 877.70 520.37
  Q 878.68 523.42 881.39 525.00
  A 0.73 0.72 -41.1 0 1 881.30 526.30
  Q 878.75 527.33 878.06 530.04
  Z"
/>
<path fill="#e97c0d" d="
  M 954.04 527.81
  L 952.65 530.59
  Q 952.30 531.27 951.94 530.60
  L 950.63 528.23
  A 0.90 0.80 4.8 0 0 950.43 528.02
  L 947.25 525.89
  A 0.57 0.56 -38.4 0 1 947.37 524.89
  Q 950.62 523.66 951.86 520.43
  A 0.50 0.49 -41.7 0 1 952.80 520.48
  Q 953.72 524.09 957.23 525.19
  Q 958.03 525.43 957.29 525.82
  L 954.66 527.18
  Q 954.25 527.40 954.04 527.81
  Z"
/>
<path fill="#e97c0d" d="
  M 968.72 523.83
  L 970.59 525.07
  A 0.52 0.52 0.0 0 1 970.63 525.91
  L 967.00 528.78
  Q 966.61 529.10 966.12 528.95
  Q 963.83 528.25 962.95 525.95
  A 1.23 1.22 -39.0 0 1 963.07 524.83
  L 965.91 520.45
  Q 966.33 519.81 966.68 520.49
  L 967.99 523.02
  Q 968.25 523.52 968.72 523.83
  Z"
/>
<path fill="#e97c0d" d="
  M 1029.86 524.02
  L 1032.30 525.31
  A 0.40 0.40 0.0 0 1 1032.19 526.05
  Q 1028.65 526.79 1027.95 530.39
  A 0.66 0.66 0.0 0 1 1026.68 530.47
  Q 1025.58 527.07 1022.37 525.63
  A 0.43 0.43 0.0 0 1 1022.41 524.83
  Q 1025.68 523.70 1026.84 520.42
  A 0.43 0.43 0.0 0 1 1027.62 520.36
  L 1029.25 523.40
  Q 1029.46 523.80 1029.86 524.02
  Z"
/>
<path fill="#e97c0d" d="
  M 1046.49 525.26
  A 0.29 0.29 0.0 0 1 1046.49 525.82
  Q 1043.94 526.60 1042.39 528.74
  A 0.90 0.89 25.3 0 1 1041.43 529.08
  Q 1038.81 528.38 1037.96 525.78
  Q 1037.81 525.32 1038.07 524.91
  L 1041.03 520.25
  A 0.38 0.38 0.0 0 1 1041.71 520.35
  Q 1042.78 524.14 1046.49 525.26
  Z"
/>
<path fill="#e97c0d" d="
  M 138.19 527.16
  Q 136.90 526.87 136.86 525.52
  A 1.22 1.20 -19.8 0 1 137.34 524.52
  Q 139.36 522.97 140.14 520.50
  A 0.47 0.47 0.0 0 1 141.01 520.45
  Q 142.41 523.59 145.56 524.91
  A 0.54 0.53 -55.6 0 1 145.72 525.79
  Q 143.58 527.82 140.92 528.89
  Q 139.55 529.43 139.01 527.89
  Q 138.80 527.30 138.19 527.16
  Z"
/>
<path fill="#e97c0d" d="
  M 668.37 523.61
  L 670.94 525.26
  A 0.34 0.34 0.0 0 1 670.94 525.83
  L 665.94 529.01
  A 0.34 0.34 0.0 0 1 665.53 528.97
  L 662.34 525.97
  A 0.34 0.34 0.0 0 1 662.30 525.52
  L 666.10 520.44
  A 0.34 0.34 0.0 0 1 666.67 520.48
  L 668.26 523.48
  A 0.34 0.34 0.0 0 0 668.37 523.61
  Z"
/>
<path fill="#e97c0d" d="
  M 741.37 520.86
  L 745.38 525.35
  A 0.34 0.34 0.0 0 1 745.36 525.83
  L 741.57 529.41
  A 0.34 0.34 0.0 0 1 741.11 529.42
  L 737.36 526.07
  A 0.34 0.34 0.0 0 1 737.32 525.61
  L 740.84 520.88
  A 0.34 0.34 0.0 0 1 741.37 520.86
  Z"
/>
<path fill="#e97c0d" d="
  M 816.67 520.45
  Q 817.76 523.48 820.52 525.09
  A 0.52 0.51 40.8 0 1 820.59 525.93
  L 817.02 528.79
  Q 816.60 529.13 816.08 528.96
  Q 813.68 528.16 812.97 525.69
  A 1.02 0.99 54.0 0 1 813.09 524.84
  L 815.92 520.37
  A 0.42 0.42 0.0 0 1 816.67 520.45
  Z"
/>
<path fill="#e97c0d" d="
  M 891.75 520.52
  Q 892.71 523.46 895.37 524.90
  A 0.68 0.67 -50.3 0 1 895.47 526.02
  L 892.08 528.80
  Q 891.67 529.13 891.17 528.98
  Q 888.77 528.26 887.94 525.82
  A 1.02 1.01 52.3 0 1 888.05 524.92
  L 890.95 520.42
  A 0.45 0.45 0.0 0 1 891.75 520.52
  Z"
/>
<path fill="#e97c0d" d="
  M 38.02 535.55
  Q 40.58 537.65 43.71 538.84
  Q 44.40 539.10 43.75 539.46
  L 38.52 542.37
  A 1.17 1.11 -2.8 0 0 38.08 542.83
  L 36.09 546.63
  A 0.70 0.70 0.0 0 1 34.84 546.60
  C 33.82 544.40 33.14 542.66 30.83 541.44
  Q 29.01 540.47 27.20 539.50
  Q 26.52 539.14 27.24 538.87
  L 32.38 536.96
  A 0.45 0.43 -86.0 0 0 32.63 536.73
  L 35.29 531.39
  A 0.50 0.50 0.0 0 1 36.20 531.44
  L 37.38 534.67
  Q 37.58 535.20 38.02 535.55
  Z"
/>
<path fill="#e97c0d" d="
  M 84.75 541.75
  L 82.08 546.55
  A 0.75 0.75 0.0 0 1 80.72 546.45
  C 79.07 541.99 77.13 541.72 73.39 539.58
  Q 72.76 539.22 73.40 538.88
  L 77.95 536.48
  A 1.25 1.25 0.0 0 0 78.47 535.96
  L 80.88 531.43
  Q 81.24 530.75 81.61 531.43
  C 83.51 534.90 83.99 537.89 88.73 538.34
  A 0.48 0.48 0.0 0 1 89.10 539.07
  Q 87.91 541.06 85.55 541.24
  A 1.00 0.99 12.2 0 0 84.75 541.75
  Z"
/>
<path fill="#e97c0d" d="
  M 109.98 531.44
  A 0.62 0.62 0.0 0 1 111.19 531.36
  Q 112.93 537.04 118.62 538.78
  A 0.57 0.56 -43.0 0 1 118.58 539.87
  Q 113.09 541.17 111.30 546.42
  A 0.80 0.80 0.0 0 1 109.80 546.45
  Q 108.05 541.85 103.42 540.12
  A 0.94 0.94 0.0 0 1 103.56 538.31
  Q 109.10 537.18 109.98 531.44
  Z"
/>
<path fill="#e97c0d" d="
  M 148.30 539.70
  A 0.39 0.38 38.7 0 1 148.22 538.99
  L 152.95 536.46
  A 1.16 1.16 0.0 0 0 153.45 535.96
  L 155.90 531.46
  Q 156.28 530.76 156.65 531.46
  C 158.28 534.53 159.14 538.25 163.56 538.15
  A 0.76 0.76 0.0 0 1 164.00 539.54
  L 159.21 542.78
  A 0.43 0.40 88.1 0 0 159.07 542.94
  L 157.10 546.54
  A 0.72 0.72 0.0 0 1 155.79 546.45
  Q 153.76 541.25 148.30 539.70
  Z"
/>
<path fill="#e97c0d" d="
  M 185.08 546.75
  C 183.22 544.04 183.15 541.17 178.92 540.51
  A 1.15 1.14 39.6 0 1 178.71 538.30
  L 181.96 537.15
  Q 182.56 536.93 182.84 536.36
  L 185.25 531.47
  A 0.50 0.50 0.0 0 1 186.14 531.46
  L 188.27 535.60
  Q 188.54 536.12 189.06 536.41
  L 193.69 538.98
  Q 194.19 539.26 193.68 539.54
  L 188.51 542.31
  A 0.47 0.47 0.0 0 0 188.30 542.52
  L 186.03 546.70
  A 0.56 0.56 0.0 0 1 185.08 546.75
  Z"
/>
<path fill="#e97c0d" d="
  M 258.89 544.10
  A 3.41 3.41 0.0 0 0 255.91 541.12
  Q 254.61 540.97 253.49 540.17
  A 0.84 0.84 0.0 0 1 253.69 538.70
  Q 258.82 536.83 260.09 531.42
  A 0.44 0.44 0.0 0 1 260.87 531.26
  C 263.68 535.08 263.57 537.19 268.60 538.75
  A 0.57 0.57 0.0 0 1 268.57 539.84
  Q 263.02 541.22 261.21 546.56
  A 0.54 0.54 0.0 0 1 260.35 546.81
  Q 259.09 545.79 258.89 544.10
  Z"
/>
<path fill="#e97c0d" d="
  M 309.94 537.13
  L 313.75 538.42
  A 0.55 0.55 0.0 0 1 313.99 539.30
  Q 312.37 541.16 310.01 542.03
  A 1.34 1.31 4.2 0 0 309.30 542.63
  L 307.06 546.55
  A 0.73 0.73 0.0 0 1 305.74 546.44
  C 304.06 541.93 302.12 541.72 298.34 539.55
  Q 297.50 539.08 298.39 538.71
  L 303.79 536.45
  A 0.61 0.59 89.1 0 0 304.11 536.11
  L 305.59 531.82
  A 0.69 0.69 0.0 0 1 306.86 531.74
  L 309.17 536.45
  Q 309.41 536.95 309.94 537.13
  Z"
/>
<path fill="#e97c0d" d="
  M 334.85 532.17
  Q 335.07 531.49 335.43 531.25
  A 0.56 0.56 0.0 0 1 336.29 531.54
  Q 338.03 537.12 343.68 538.78
  A 0.37 0.36 -51.0 0 1 343.75 539.45
  L 338.75 542.25
  Q 338.18 542.57 337.88 543.15
  L 336.02 546.75
  A 0.52 0.52 0.0 0 1 335.16 546.84
  Q 333.87 545.30 333.80 543.20
  A 0.88 0.87 12.0 0 0 333.31 542.45
  L 328.67 540.16
  A 0.83 0.83 0.0 0 1 328.78 538.63
  Q 333.24 537.20 334.85 532.17
  Z"
/>
<path fill="#e97c0d" d="
  M 379.05 535.96
  Q 380.21 533.81 381.11 531.53
  Q 381.37 530.88 381.69 531.51
  L 384.00 536.06
  Q 384.25 536.54 384.75 536.74
  L 388.95 538.42
  Q 389.51 538.65 389.14 539.12
  C 387.66 541.03 385.54 541.33 384.25 542.89
  Q 382.95 544.46 382.29 546.41
  A 0.84 0.84 0.0 0 1 380.72 546.46
  C 379.86 544.39 379.21 542.72 377.06 541.58
  Q 375.19 540.59 373.37 539.54
  Q 372.60 539.10 373.41 538.75
  L 378.40 536.57
  Q 378.83 536.38 379.05 535.96
  Z"
/>
<path fill="#e97c0d" d="
  M 418.58 539.85
  C 414.40 541.02 412.68 542.55 411.59 546.76
  A 0.49 0.49 0.0 0 1 410.70 546.90
  L 407.38 541.61
  A 1.02 1.00 73.5 0 0 406.53 541.14
  Q 404.62 541.14 403.22 539.94
  A 0.60 0.60 0.0 0 1 403.33 538.96
  L 407.51 536.68
  A 0.65 0.63 -2.0 0 0 407.79 536.39
  L 410.39 531.31
  A 0.43 0.43 0.0 0 1 411.18 531.37
  Q 412.96 537.01 418.60 538.77
  A 0.56 0.56 0.0 0 1 418.58 539.85
  Z"
/>
<path fill="#e97c0d" d="
  M 454.15 535.80
  L 456.18 531.54
  Q 456.44 530.98 456.72 531.53
  L 459.05 536.15
  A 1.32 1.29 -2.7 0 0 459.77 536.79
  L 463.35 538.09
  A 1.16 1.16 0.0 0 1 463.34 540.28
  Q 458.79 541.89 457.23 546.47
  A 0.77 0.76 44.2 0 1 455.79 546.49
  Q 453.82 541.26 448.33 539.73
  A 0.47 0.47 0.0 0 1 448.26 538.84
  L 453.39 536.54
  Q 453.90 536.31 454.15 535.80
  Z"
/>
<path fill="#e97c0d" d="
  M 482.91 536.10
  L 485.31 531.42
  A 0.53 0.53 0.0 0 1 486.28 531.49
  C 487.85 536.20 489.60 536.63 493.64 538.91
  Q 494.24 539.25 493.64 539.57
  C 489.98 541.55 487.12 542.09 486.61 546.97
  A 0.53 0.53 0.0 0 1 485.58 547.09
  Q 483.74 541.64 478.31 539.64
  A 0.38 0.38 0.0 0 1 478.27 538.95
  L 482.14 536.88
  Q 482.65 536.61 482.91 536.10
  Z"
/>
<path fill="#e97c0d" d="
  M 539.68 538.75
  Q 540.49 539.07 539.72 539.50
  C 535.58 541.79 534.29 542.08 532.09 546.59
  A 0.75 0.75 0.0 0 1 530.71 546.50
  Q 528.98 541.35 523.68 539.89
  A 0.64 0.64 0.0 0 1 523.64 538.66
  L 527.95 537.16
  Q 528.62 536.93 528.92 536.29
  L 531.20 531.57
  A 0.62 0.62 0.0 0 1 532.34 531.63
  L 533.93 536.16
  A 0.63 0.63 0.0 0 0 534.30 536.56
  L 539.68 538.75
  Z"
/>
<path fill="#e97c0d" d="
  M 563.38 542.73
  L 561.46 547.06
  A 0.51 0.51 0.0 0 1 560.51 547.01
  Q 558.72 541.62 553.36 539.70
  Q 552.51 539.39 553.31 538.96
  L 557.49 536.69
  A 0.65 0.58 -88.1 0 0 557.70 536.47
  L 560.32 531.51
  A 0.44 0.44 0.0 0 1 561.09 531.50
  L 563.61 536.04
  A 1.14 1.05 2.2 0 0 564.05 536.48
  L 568.75 538.97
  A 0.34 0.33 -44.3 0 1 568.74 539.56
  L 564.13 541.93
  Q 563.61 542.20 563.38 542.73
  Z"
/>
<path fill="#e97c0d" d="
  M 605.72 546.42
  C 604.48 542.62 602.40 541.48 598.81 539.92
  A 0.88 0.88 0.0 0 1 599.10 538.24
  C 604.22 537.88 604.34 535.16 606.29 531.39
  A 0.48 0.47 42.0 0 1 607.11 531.35
  Q 607.97 532.64 607.99 534.27
  Q 607.99 534.99 608.60 535.36
  L 614.63 539.06
  Q 615.03 539.30 614.64 539.56
  C 611.67 541.55 608.92 541.67 607.59 545.62
  Q 607.30 546.50 606.81 546.81
  A 0.73 0.73 0.0 0 1 605.72 546.42
  Z"
/>
<path fill="#e97c0d" d="
  M 633.00 535.72
  Q 634.45 533.67 635.21 531.36
  A 0.52 0.52 0.0 0 1 636.21 531.37
  Q 637.95 537.08 643.68 538.78
  A 0.38 0.38 0.0 0 1 643.75 539.48
  L 638.92 542.15
  A 1.11 1.02 89.4 0 0 638.46 542.66
  L 636.50 547.00
  Q 636.19 547.71 635.72 547.09
  C 634.90 546.02 634.50 544.50 633.77 543.61
  Q 631.59 540.94 628.34 539.58
  Q 627.73 539.33 628.30 538.99
  C 630.10 537.93 631.80 537.43 633.00 535.72
  Z"
/>
<path fill="#e97c0d" d="
  M 673.85 540.02
  A 0.76 0.76 0.0 0 1 673.80 538.57
  L 677.92 537.17
  Q 678.59 536.94 678.90 536.31
  L 681.33 531.29
  A 0.46 0.46 0.0 0 1 682.19 531.36
  Q 683.95 537.07 689.69 538.76
  A 0.52 0.52 0.0 0 1 689.68 539.76
  Q 684.30 541.20 682.30 546.22
  A 0.92 0.92 0.0 0 1 680.58 546.19
  Q 678.85 541.41 673.85 540.02
  Z"
/>
<path fill="#e97c0d" d="
  M 708.64 535.69
  L 710.15 531.47
  A 0.52 0.52 0.0 0 1 711.10 531.40
  L 713.46 535.88
  A 1.48 1.48 0.0 0 0 714.06 536.48
  L 718.57 538.91
  A 0.45 0.44 -40.8 0 1 718.51 539.72
  Q 713.36 541.57 711.60 546.81
  A 0.65 0.64 45.2 0 1 710.38 546.80
  Q 708.63 541.48 703.28 539.69
  A 0.40 0.40 0.0 0 1 703.22 538.96
  L 707.97 536.47
  A 1.41 1.40 -4.7 0 0 708.64 535.69
  Z"
/>
<path fill="#e97c0d" d="
  M 752.48 541.23
  Q 750.22 541.05 748.92 539.24
  A 0.54 0.53 -26.4 0 1 749.20 538.42
  L 752.87 537.31
  Q 753.38 537.16 753.63 536.68
  L 756.31 531.45
  Q 756.59 530.91 756.97 531.39
  C 757.86 532.54 758.37 534.28 759.18 535.20
  Q 761.39 537.71 764.70 538.79
  A 0.42 0.42 0.0 0 1 764.76 539.56
  L 759.70 542.18
  A 1.27 1.25 -88.9 0 0 759.15 542.72
  L 757.24 546.33
  A 0.83 0.83 0.0 0 1 755.78 546.34
  L 753.21 541.70
  A 0.92 0.92 0.0 0 0 752.48 541.23
  Z"
/>
<path fill="#e97c0d" d="
  M 783.55 535.78
  L 785.12 531.45
  A 0.60 0.59 45.3 0 1 786.24 531.46
  C 787.99 536.38 789.50 536.39 793.64 538.93
  A 0.41 0.41 0.0 0 1 793.57 539.66
  Q 788.27 541.65 786.50 547.03
  Q 786.24 547.83 785.76 547.14
  C 784.77 545.71 784.32 543.90 783.12 542.78
  Q 781.02 540.81 778.38 539.60
  Q 777.62 539.24 778.36 538.86
  L 782.93 536.48
  A 1.28 1.26 -3.9 0 0 783.55 535.78
  Z"
/>
<path fill="#e97c0d" d="
  M 839.68 539.43
  C 836.44 541.67 833.53 542.03 832.29 546.37
  A 0.92 0.92 0.0 0 1 830.49 546.22
  Q 829.90 541.31 824.96 540.51
  A 0.95 0.95 0.0 0 1 824.72 538.71
  C 829.06 536.76 829.39 535.38 831.29 531.32
  A 0.39 0.39 0.0 0 1 831.99 531.30
  C 834.36 535.72 834.99 536.70 839.64 538.85
  Q 840.17 539.09 839.68 539.43
  Z"
/>
<path fill="#e97c0d" d="
  M 858.19 536.23
  C 859.52 534.46 859.78 533.26 860.18 531.46
  A 0.53 0.53 0.0 0 1 861.20 531.41
  Q 863.00 537.08 868.70 538.80
  A 0.43 0.43 0.0 0 1 868.72 539.62
  Q 863.42 541.47 861.56 546.80
  A 0.61 0.61 0.0 0 1 860.41 546.80
  Q 858.59 541.52 853.29 539.66
  A 0.39 0.39 0.0 0 1 853.24 538.94
  L 857.75 536.61
  A 1.38 1.33 -84.7 0 0 858.19 536.23
  Z"
/>
<path fill="#e97c0d" d="
  M 907.41 531.90
  Q 909.20 537.13 914.57 538.72
  A 0.60 0.59 -43.6 0 1 914.54 539.87
  Q 909.10 541.24 907.24 546.43
  A 0.85 0.84 -44.2 0 1 905.64 546.41
  C 904.54 542.96 904.04 541.04 899.93 540.69
  A 1.02 1.02 0.0 0 1 899.55 538.77
  L 903.44 536.78
  A 0.75 0.64 -3.6 0 0 903.76 536.47
  L 906.17 531.80
  Q 906.90 530.39 907.41 531.90
  Z"
/>
<path fill="#e97c0d" d="
  M 928.01 539.41
  A 0.20 0.20 0.0 0 1 928.00 539.04
  C 931.83 537.26 934.59 536.29 935.14 531.50
  A 0.55 0.55 0.0 0 1 936.21 531.40
  Q 937.97 537.10 943.70 538.79
  A 0.40 0.40 0.0 0 1 943.73 539.54
  Q 938.38 541.61 936.46 547.02
  Q 936.20 547.78 935.74 547.12
  C 934.84 545.85 934.35 544.23 933.44 543.22
  Q 931.32 540.83 928.01 539.41
  Z"
/>
<path fill="#e97c0d" d="
  M 974.67 538.60
  C 978.87 537.41 979.27 535.35 981.03 531.65
  A 0.76 0.76 0.0 0 1 982.45 531.75
  C 983.88 536.47 985.85 536.61 989.77 538.94
  Q 990.30 539.25 989.75 539.54
  L 984.42 542.32
  A 1.01 1.00 -4.3 0 0 983.96 542.85
  L 982.50 546.78
  A 0.62 0.61 47.4 0 1 981.33 546.73
  Q 979.91 541.58 974.70 540.31
  A 0.89 0.88 -46.1 0 1 974.67 538.60
  Z"
/>
<path fill="#e97c0d" d="
  M 1015.94 541.00
  Q 1012.71 543.19 1011.65 546.79
  A 0.66 0.66 0.0 0 1 1010.39 546.81
  Q 1008.63 541.48 1003.28 539.69
  A 0.39 0.39 0.0 0 1 1003.23 538.97
  L 1007.86 536.54
  A 1.49 1.44 -0.5 0 0 1008.47 535.94
  L 1011.01 531.30
  A 0.37 0.37 0.0 0 1 1011.70 531.41
  C 1012.54 536.30 1014.73 536.85 1018.59 538.93
  Q 1019.16 539.24 1018.62 539.59
  C 1017.77 540.16 1016.65 540.51 1015.94 541.00
  Z"
/>
<path fill="#e97c0d" d="
  M 1058.84 542.87
  L 1057.44 546.94
  A 0.51 0.51 0.0 0 1 1056.47 546.94
  Q 1054.71 541.57 1049.35 539.69
  Q 1048.45 539.37 1049.29 538.93
  L 1053.46 536.72
  A 0.61 0.54 -3.6 0 0 1053.71 536.47
  L 1056.35 531.42
  Q 1056.69 530.79 1057.03 531.41
  L 1059.62 536.08
  A 0.49 0.49 0.0 0 0 1059.82 536.28
  L 1064.75 538.98
  A 0.32 0.31 -44.8 0 1 1064.74 539.53
  L 1059.08 542.59
  A 0.48 0.47 -4.8 0 0 1058.84 542.87
  Z"
/>
<path fill="#e97c0d" d="
  M 229.85 534.68
  Q 229.86 532.84 230.89 531.42
  Q 231.26 530.92 231.58 531.45
  C 233.27 534.22 234.05 538.09 238.14 538.18
  A 1.02 1.02 0.0 0 1 238.48 540.15
  Q 234.02 541.89 232.27 546.30
  A 0.87 0.87 0.0 0 1 230.69 546.37
  L 228.93 542.87
  Q 228.71 542.44 228.29 542.22
  L 223.44 539.62
  A 0.37 0.37 0.0 0 1 223.43 538.98
  L 229.34 535.57
  A 1.03 1.03 0.0 0 0 229.85 534.68
  Z"
/>
<path fill="#e97c0d" d="
  M 434.63 537.71
  L 436.71 539.10
  A 0.60 0.60 0.0 0 1 436.57 540.17
  Q 433.50 541.19 432.99 544.46
  A 0.58 0.57 -51.7 0 1 431.89 544.59
  Q 430.65 541.49 427.55 540.23
  A 0.69 0.68 -47.1 0 1 427.51 538.98
  Q 430.53 537.46 431.93 534.42
  A 0.37 0.37 0.0 0 1 432.60 534.40
  L 433.92 536.92
  Q 434.17 537.41 434.63 537.71
  Z"
/>
<path fill="#e97c0d" d="
  M 509.77 537.93
  L 512.44 539.32
  A 0.36 0.36 0.0 0 1 512.34 539.99
  Q 508.76 540.73 508.02 544.31
  A 0.69 0.69 0.0 0 1 506.74 544.50
  L 505.30 541.83
  A 0.53 0.53 0.0 0 0 505.11 541.64
  L 502.20 539.95
  A 0.59 0.59 0.0 0 1 502.31 538.88
  Q 505.61 537.76 506.80 534.49
  A 0.45 0.44 40.5 0 1 507.61 534.43
  L 509.29 537.46
  A 1.16 1.14 88.7 0 0 509.77 537.93
  Z"
/>
<path fill="#e97c0d" d="
  M 808.99 541.87
  L 807.88 544.47
  A 0.62 0.62 0.0 0 1 806.73 544.44
  Q 805.61 541.35 802.57 540.25
  A 0.52 0.52 0.0 0 1 802.51 539.30
  Q 805.64 537.72 806.85 534.36
  A 0.45 0.45 0.0 0 1 807.70 534.39
  Q 808.80 538.10 812.44 539.29
  A 0.55 0.55 0.0 0 1 812.45 540.34
  L 809.53 541.36
  Q 809.15 541.50 808.99 541.87
  Z"
/>
<path fill="#e97c0d" d="
  M 58.05 544.27
  A 0.68 0.68 0.0 0 1 56.81 544.47
  L 55.45 542.19
  Q 55.17 541.72 54.70 541.44
  L 52.33 540.05
  A 0.63 0.63 0.0 0 1 52.40 538.93
  Q 55.54 537.58 56.89 534.46
  A 0.45 0.45 0.0 0 1 57.73 534.49
  Q 58.73 537.51 61.49 538.96
  A 0.69 0.69 0.0 0 1 61.44 540.21
  Q 58.71 541.35 58.05 544.27
  Z"
/>
<path fill="#e97c0d" d="
  M 134.63 537.72
  L 136.67 539.11
  A 0.60 0.60 0.0 0 1 136.54 540.17
  Q 133.46 541.30 132.93 544.59
  A 0.48 0.48 0.0 0 1 132.02 544.70
  Q 130.61 541.44 127.34 540.05
  A 0.51 0.51 0.0 0 1 127.32 539.12
  Q 130.42 537.60 131.89 534.52
  Q 132.26 533.76 132.65 534.50
  L 133.93 536.92
  Q 134.18 537.41 134.63 537.72
  Z"
/>
<path fill="#e97c0d" d="
  M 204.84 541.46
  L 202.32 540.07
  A 0.67 0.67 0.0 0 1 202.41 538.85
  Q 205.63 537.66 206.84 534.47
  A 0.48 0.48 0.0 0 1 207.75 534.50
  Q 208.68 537.61 211.57 538.94
  A 0.61 0.61 0.0 0 1 211.64 540.01
  L 209.40 541.40
  A 0.64 0.64 0.0 0 0 209.16 541.67
  L 207.74 544.66
  A 0.50 0.50 0.0 0 1 206.85 544.68
  L 205.42 542.05
  A 1.46 1.43 1.1 0 0 204.84 541.46
  Z"
/>
<path fill="#e97c0d" d="
  M 283.97 541.99
  L 282.73 544.68
  A 0.45 0.45 0.0 0 1 281.90 544.64
  Q 280.82 541.70 278.01 540.44
  Q 276.14 539.59 277.96 538.66
  Q 280.73 537.24 281.90 534.39
  A 0.42 0.41 47.8 0 1 282.68 534.43
  Q 283.64 537.58 286.57 538.99
  A 0.58 0.58 0.0 0 1 286.63 540.01
  L 284.64 541.23
  Q 284.19 541.51 283.97 541.99
  Z"
/>
<path fill="#e97c0d" d="
  M 357.90 544.50
  A 0.61 0.61 0.0 0 1 356.72 544.55
  Q 355.69 541.34 352.57 540.25
  A 0.77 0.77 0.0 0 1 352.54 538.80
  Q 355.62 537.60 356.82 534.53
  A 0.51 0.50 46.6 0 1 357.77 534.56
  Q 358.71 537.51 361.40 538.89
  A 0.73 0.73 0.0 0 1 361.37 540.21
  Q 358.61 541.46 357.90 544.50
  Z"
/>
<path fill="#e97c0d" d="
  M 584.75 537.93
  L 587.26 539.21
  Q 588.18 539.69 587.18 539.96
  Q 583.60 540.93 582.92 544.61
  A 0.49 0.49 0.0 0 1 581.99 544.71
  Q 580.67 541.51 577.49 540.11
  A 0.62 0.61 44.0 0 1 577.47 538.99
  Q 580.54 537.51 581.92 534.43
  A 0.37 0.37 0.0 0 1 582.59 534.41
  L 584.06 537.24
  Q 584.30 537.69 584.75 537.93
  Z"
/>
<path fill="#e97c0d" d="
  M 660.00 538.08
  L 662.49 539.37
  A 0.31 0.31 0.0 0 1 662.41 539.95
  Q 658.74 540.73 657.97 544.40
  A 0.65 0.64 41.2 0 1 656.73 544.48
  Q 655.63 541.36 652.57 540.24
  A 0.50 0.50 0.0 0 1 652.51 539.33
  Q 655.56 537.73 656.77 534.49
  A 0.46 0.46 0.0 0 1 657.60 534.43
  L 659.26 537.37
  Q 659.52 537.84 660.00 538.08
  Z"
/>
<path fill="#e97c0d" d="
  M 733.96 541.72
  L 732.85 544.52
  A 0.42 0.42 0.0 0 1 732.16 544.66
  Q 731.19 543.66 730.70 542.33
  A 1.14 1.14 0.0 0 0 730.23 541.77
  L 727.44 540.14
  Q 726.81 539.77 727.45 539.41
  Q 730.51 537.71 731.88 534.43
  A 0.47 0.47 0.0 0 1 732.77 534.49
  Q 733.76 538.33 737.60 539.24
  A 0.55 0.55 0.0 0 1 737.65 540.29
  L 734.21 541.47
  A 0.44 0.44 0.0 0 0 733.96 541.72
  Z"
/>
<path fill="#e97c0d" d="
  M 887.67 539.28
  A 0.49 0.49 0.0 0 1 887.68 540.23
  Q 884.14 541.21 882.77 544.57
  A 0.47 0.47 0.0 0 1 881.90 544.56
  Q 880.64 541.45 877.51 540.23
  A 0.47 0.47 0.0 0 1 877.45 539.38
  Q 880.52 537.69 881.88 534.44
  A 0.46 0.46 0.0 0 1 882.75 534.49
  Q 883.80 538.33 887.67 539.28
  Z"
/>
<path fill="#e97c0d" d="
  M 952.26 540.05
  A 0.41 0.41 0.0 0 1 952.31 539.26
  Q 956.19 538.32 957.09 534.44
  A 0.36 0.35 44.1 0 1 957.78 534.43
  Q 958.80 538.18 962.48 539.28
  A 0.50 0.50 0.0 0 1 962.49 540.24
  Q 959.45 541.21 958.40 544.25
  A 0.92 0.91 -46.5 0 1 956.69 544.30
  Q 955.42 541.23 952.26 540.05
  Z"
/>
<path fill="#e97c0d" d="
  M 1032.74 534.58
  C 1034.18 537.44 1034.60 538.25 1037.74 539.39
  A 0.43 0.43 0.0 0 1 1037.71 540.20
  Q 1034.39 541.16 1033.33 544.46
  A 0.75 0.74 41.4 0 1 1031.95 544.54
  Q 1030.54 541.56 1027.50 540.24
  A 0.52 0.52 0.0 0 1 1027.55 539.26
  Q 1031.04 538.16 1032.12 534.63
  Q 1032.36 533.83 1032.74 534.58
  Z"
/>
<path fill="#e97c0d" d="
  M 52.26 555.50
  A 0.45 0.45 0.0 0 1 51.44 555.56
  Q 49.73 552.55 46.47 551.22
  A 0.55 0.55 0.0 0 1 46.54 550.18
  Q 50.29 549.19 51.11 545.37
  A 0.47 0.47 0.0 0 1 52.01 545.29
  Q 53.40 548.60 56.42 550.40
  Q 57.15 550.83 56.37 551.17
  Q 53.39 552.44 52.26 555.50
  Z"
/>
<path fill="#e97c0d" d="
  M 124.01 552.08
  L 122.55 551.88
  A 1.01 1.01 0.0 0 1 122.40 549.92
  Q 125.75 548.89 126.20 545.53
  A 0.47 0.47 0.0 0 1 127.10 545.42
  Q 128.39 548.69 131.47 550.33
  A 0.57 0.57 0.0 0 1 131.32 551.39
  Q 127.91 552.13 127.74 555.59
  A 0.70 0.70 0.0 0 1 126.42 555.87
  L 124.82 552.66
  A 1.08 1.07 -9.0 0 0 124.01 552.08
  Z"
/>
<path fill="#e97c0d" d="
  M 203.20 553.55
  L 202.57 555.85
  Q 202.25 557.03 201.63 555.97
  L 199.68 552.63
  Q 199.43 552.20 198.95 552.09
  L 197.14 551.66
  A 0.48 0.48 0.0 0 1 196.86 550.91
  C 198.16 549.02 201.65 548.38 200.97 545.80
  A 0.59 0.59 0.0 0 1 202.08 545.42
  Q 203.48 548.71 206.51 550.45
  Q 207.06 550.77 206.51 551.10
  L 203.86 552.68
  Q 203.36 552.98 203.20 553.55
  Z"
/>
<path fill="#e97c0d" d="
  M 654.31 552.58
  L 652.40 556.03
  A 0.58 0.57 53.4 0 1 651.34 555.87
  L 650.79 553.39
  Q 650.70 552.97 650.34 552.77
  L 647.45 551.14
  A 0.46 0.46 0.0 0 1 647.47 550.33
  Q 650.60 548.73 651.84 545.41
  A 0.45 0.45 0.0 0 1 652.70 545.48
  Q 653.30 548.82 656.52 549.92
  A 0.95 0.95 0.0 0 1 656.47 551.73
  L 654.81 552.19
  A 0.83 0.82 -82.6 0 0 654.31 552.58
  Z"
/>
<path fill="#e97c0d" d="
  M 729.25 552.65
  L 727.41 556.09
  Q 726.83 557.18 726.46 556.00
  L 725.56 553.16
  A 1.01 0.98 -84.9 0 0 725.10 552.59
  L 722.45 551.14
  A 0.45 0.45 0.0 0 1 722.46 550.34
  Q 725.68 548.69 726.95 545.25
  A 0.38 0.38 0.0 0 1 727.69 545.33
  Q 728.13 548.69 731.33 549.78
  A 1.04 1.04 0.0 0 1 731.24 551.78
  L 729.95 552.10
  Q 729.48 552.22 729.25 552.65
  Z"
/>
<path fill="#e97c0d" d="
  M 801.77 545.64
  A 0.55 0.55 0.0 0 1 802.79 545.66
  Q 803.85 548.45 806.34 549.97
  A 1.08 1.08 0.0 0 1 806.25 551.86
  Q 803.85 553.04 802.84 555.50
  A 0.54 0.54 0.0 0 1 801.84 555.50
  Q 800.61 552.46 797.56 551.21
  A 0.49 0.49 0.0 0 1 797.51 550.32
  Q 800.43 548.70 801.77 545.64
  Z"
/>
<path fill="#e97c0d" d="
  M 872.39 550.42
  C 875.26 548.75 875.37 547.69 876.88 545.46
  Q 877.25 544.91 877.59 545.48
  L 879.02 547.82
  Q 879.34 548.34 879.81 548.73
  L 881.91 550.46
  A 0.62 0.62 0.0 0 1 881.80 551.48
  Q 879.13 552.85 877.65 555.46
  A 0.50 0.49 -41.1 0 1 876.76 555.40
  Q 875.53 552.35 872.45 551.16
  A 0.41 0.41 0.0 0 1 872.39 550.42
  Z"
/>
<path fill="#e97c0d" d="
  M 951.87 545.38
  A 0.41 0.41 0.0 0 1 952.64 545.39
  Q 953.77 548.43 956.50 550.05
  A 0.96 0.96 0.0 0 1 956.42 551.75
  Q 953.85 552.97 952.80 555.58
  A 0.52 0.52 0.0 0 1 951.84 555.57
  Q 950.63 552.40 947.45 551.15
  A 0.41 0.41 0.0 0 1 947.40 550.41
  Q 950.53 548.70 951.87 545.38
  Z"
/>
<path fill="#e97c0d" d="
  M 1026.91 545.29
  A 0.41 0.41 0.0 0 1 1027.69 545.32
  Q 1028.79 549.10 1032.51 550.23
  A 0.45 0.45 0.0 0 1 1032.56 551.07
  Q 1029.37 552.47 1027.73 555.49
  A 0.54 0.54 0.0 0 1 1026.76 555.43
  Q 1025.59 552.41 1022.56 551.24
  A 0.51 0.51 0.0 0 1 1022.50 550.31
  Q 1025.65 548.65 1026.91 545.29
  Z"
/>
<path fill="#e97c0d" d="
  M 274.19 552.21
  L 272.09 551.65
  A 0.52 0.51 28.2 0 1 271.83 550.81
  Q 273.11 549.36 274.86 548.52
  Q 275.25 548.33 275.47 547.95
  L 276.55 546.04
  A 0.50 0.50 0.0 0 1 277.44 546.08
  Q 278.65 548.83 281.24 550.24
  Q 281.99 550.65 281.27 551.11
  Q 278.56 552.85 277.52 556.01
  A 0.52 0.52 0.0 0 1 276.56 556.08
  L 274.85 552.74
  Q 274.64 552.33 274.19 552.21
  Z"
/>
<path fill="#e97c0d" d="
  M 348.97 552.16
  L 347.16 551.62
  A 0.52 0.52 0.0 0 1 346.90 550.80
  Q 348.13 549.27 349.92 548.45
  A 1.66 1.59 0.0 0 0 350.68 547.72
  L 351.53 546.07
  A 0.58 0.58 0.0 0 1 352.59 546.13
  Q 353.67 548.97 356.32 550.30
  Q 357.07 550.67 356.35 551.10
  Q 353.58 552.78 352.53 555.96
  A 0.49 0.48 39.5 0 1 351.65 556.04
  L 349.84 552.85
  Q 349.54 552.33 348.97 552.16
  Z"
/>
<path fill="#e97c0d" d="
  M 431.31 551.09
  C 428.78 552.77 428.98 554.14 427.20 556.15
  A 0.45 0.45 0.0 0 1 426.44 555.98
  Q 425.42 552.70 422.49 551.08
  A 0.44 0.44 0.0 0 1 422.52 550.29
  Q 425.35 549.00 426.52 546.08
  A 0.49 0.49 0.0 0 1 427.43 546.06
  Q 428.66 548.84 431.28 550.26
  Q 431.99 550.65 431.31 551.09
  Z"
/>
<path fill="#e97c0d" d="
  M 504.19 552.87
  L 502.38 555.98
  A 0.52 0.52 0.0 0 1 501.44 555.88
  Q 500.38 552.67 497.47 551.08
  A 0.43 0.43 0.0 0 1 497.49 550.31
  Q 500.24 548.93 501.51 546.13
  A 0.48 0.48 0.0 0 1 502.35 546.07
  Q 504.01 548.71 506.73 550.25
  A 0.78 0.78 0.0 0 1 506.60 551.67
  L 504.94 552.25
  Q 504.45 552.42 504.19 552.87
  Z"
/>
<path fill="#e97c0d" d="
  M 578.08 554.97
  A 1.09 1.09 0.0 0 1 575.98 555.07
  Q 575.12 552.32 572.57 551.20
  A 0.50 0.50 0.0 0 1 572.56 550.29
  Q 575.38 548.98 576.51 546.05
  A 0.43 0.42 40.1 0 1 577.27 545.99
  Q 578.85 548.63 581.54 550.11
  A 0.89 0.89 0.0 0 1 581.27 551.77
  Q 578.65 552.26 578.08 554.97
  Z"
/>
<path fill="#e97c0d" d="
  M 63.16 557.26
  Q 61.96 556.76 61.97 555.44
  Q 61.97 554.85 62.42 554.48
  Q 64.33 552.86 65.23 550.49
  A 0.47 0.47 0.0 0 1 66.09 550.46
  Q 67.45 553.44 70.39 554.91
  A 0.75 0.74 42.5 0 1 70.45 556.21
  L 66.15 558.86
  Q 65.68 559.15 65.15 559.01
  Q 64.25 558.78 63.87 557.95
  Q 63.65 557.46 63.16 557.26
  Z"
/>
<path fill="#e97c0d" d="
  M 213.25 557.28
  L 212.60 556.91
  Q 212.11 556.63 212.00 556.08
  Q 211.72 554.60 213.00 553.96
  Q 213.52 553.70 213.80 553.20
  L 215.37 550.36
  A 0.41 0.41 0.0 0 1 216.11 550.40
  Q 217.33 553.46 220.34 554.84
  A 0.76 0.76 0.0 0 1 220.46 556.16
  Q 218.49 557.51 216.38 558.65
  C 215.35 559.22 214.37 559.08 213.88 557.98
  Q 213.68 557.53 213.25 557.28
  Z"
/>
<path fill="#e97c0d" d="
  M 363.24 557.31
  L 361.97 556.42
  A 0.56 0.56 0.0 0 1 361.98 555.49
  Q 364.72 553.68 365.18 550.50
  A 0.41 0.40 -54.6 0 1 365.94 550.37
  Q 367.50 553.39 370.50 555.02
  A 0.56 0.55 -52.1 0 1 370.61 555.92
  Q 368.48 557.87 365.95 558.79
  C 365.04 559.12 364.36 558.95 363.93 558.11
  Q 363.69 557.62 363.24 557.31
  Z"
/>
<path fill="#e97c0d" d="
  M 138.14 557.16
  Q 136.60 556.70 136.98 555.20
  Q 137.11 554.71 137.50 554.39
  Q 139.39 552.85 140.18 550.50
  A 0.44 0.44 0.0 0 1 140.99 550.45
  Q 142.46 553.50 145.53 554.91
  A 0.69 0.69 0.0 0 1 145.60 556.12
  L 140.70 559.11
  Q 140.07 559.50 139.62 558.91
  L 138.46 557.38
  A 0.64 0.60 -8.4 0 0 138.14 557.16
  Z"
/>
<path fill="#e97c0d" d="
  M 290.66 550.81
  L 295.72 555.59
  A 0.30 0.30 0.0 0 1 295.67 556.07
  L 290.41 559.33
  A 0.30 0.30 0.0 0 1 290.03 559.27
  L 287.23 556.18
  A 0.30 0.30 0.0 0 1 287.20 555.82
  L 290.20 550.88
  A 0.30 0.30 0.0 0 1 290.66 550.81
  Z"
/>
<path fill="#e97c0d" d="
  M 439.81 552.12
  L 440.13 550.55
  A 0.42 0.42 0.0 0 1 440.92 550.44
  Q 442.54 553.51 445.65 555.02
  A 0.55 0.55 0.0 0 1 445.71 555.98
  L 441.31 558.82
  Q 440.91 559.07 440.52 558.80
  L 437.09 556.46
  A 0.48 0.48 0.0 0 1 437.00 555.75
  L 439.31 553.12
  Q 439.69 552.68 439.81 552.12
  Z"
/>
<path fill="#e97c0d" d="
  M 512.39 555.40
  L 516.07 550.47
  A 0.36 0.35 58.8 0 1 516.70 550.63
  Q 517.23 553.70 520.27 554.70
  A 0.82 0.81 -52.2 0 1 520.45 556.16
  L 516.28 558.82
  A 0.83 0.83 0.0 0 1 515.27 558.72
  L 512.46 556.11
  Q 512.10 555.78 512.39 555.40
  Z"
/>
<path fill="#e97c0d" d="
  M 592.65 553.21
  L 595.41 554.87
  A 0.68 0.67 40.6 0 1 595.50 555.96
  L 591.96 558.95
  A 0.67 0.66 -52.9 0 1 591.26 559.05
  Q 589.01 558.07 587.51 556.08
  Q 587.20 555.68 587.50 555.28
  L 591.09 550.49
  A 0.36 0.35 -33.9 0 1 591.72 550.61
  L 592.21 552.62
  A 0.97 0.94 -82.5 0 0 592.65 553.21
  Z"
/>
<path fill="#e97c0d" d="
  M 666.41 550.87
  L 670.37 555.46
  A 0.34 0.34 0.0 0 1 670.34 555.93
  L 666.52 559.40
  A 0.34 0.34 0.0 0 1 666.06 559.41
  L 662.23 555.98
  A 0.34 0.34 0.0 0 1 662.19 555.52
  L 665.88 550.88
  A 0.34 0.34 0.0 0 1 666.41 550.87
  Z"
/>
<path fill="#e97c0d" d="
  M 741.38 550.87
  L 745.41 555.42
  A 0.34 0.34 0.0 0 1 745.38 555.90
  L 741.56 559.40
  A 0.34 0.34 0.0 0 1 741.10 559.41
  L 737.28 556.03
  A 0.34 0.34 0.0 0 1 737.23 555.57
  L 740.86 550.88
  A 0.34 0.34 0.0 0 1 741.38 550.87
  Z"
/>
<path fill="#e97c0d" d="
  M 816.63 550.39
  Q 817.76 553.46 820.54 555.14
  A 0.50 0.50 0.0 0 1 820.59 555.95
  L 816.95 558.87
  A 0.66 0.66 0.0 0 1 816.41 559.00
  C 810.27 557.76 814.37 552.97 815.97 550.33
  A 0.37 0.37 0.0 0 1 816.63 550.39
  Z"
/>
<path fill="#e97c0d" d="
  M 891.69 550.50
  Q 892.75 553.47 895.49 554.96
  A 0.60 0.59 -50.4 0 1 895.58 555.94
  L 892.02 558.87
  A 0.78 0.77 -57.9 0 1 891.37 559.02
  Q 888.57 558.39 887.96 555.59
  Q 887.86 555.15 888.11 554.77
  L 890.97 550.41
  A 0.41 0.40 52.1 0 1 891.69 550.50
  Z"
/>
<path fill="#e97c0d" d="
  M 966.22 550.69
  L 970.38 555.48
  A 0.34 0.34 0.0 0 1 970.35 555.95
  L 966.36 559.54
  A 0.34 0.34 0.0 0 1 965.88 559.52
  L 962.64 556.08
  A 0.34 0.34 0.0 0 1 962.60 555.67
  L 965.68 550.73
  A 0.34 0.34 0.0 0 1 966.22 550.69
  Z"
/>
<path fill="#e97c0d" d="
  M 1041.24 550.68
  L 1045.41 555.46
  A 0.33 0.33 0.0 0 1 1045.38 555.92
  L 1041.42 559.51
  A 0.33 0.33 0.0 0 1 1040.96 559.49
  L 1037.64 556.11
  A 0.33 0.33 0.0 0 1 1037.60 555.70
  L 1040.71 550.72
  A 0.33 0.33 0.0 0 1 1041.24 550.68
  Z"
/>
</svg>
